<?xml version="1.0" encoding="UTF-8" standalone="no"?>
<!-- Creator: CorelDRAW X7 -->

<svg
   xmlns:dc="http://purl.org/dc/elements/1.1/"
   xmlns:cc="http://creativecommons.org/ns#"
   xmlns:rdf="http://www.w3.org/1999/02/22-rdf-syntax-ns#"
   xmlns:svg="http://www.w3.org/2000/svg"
   xmlns="http://www.w3.org/2000/svg"
   xmlns:sodipodi="http://sodipodi.sourceforge.net/DTD/sodipodi-0.dtd"
   xmlns:inkscape="http://www.inkscape.org/namespaces/inkscape"
   xml:space="preserve"
   width="1.33309in"
   height="1.15666in"
   version="1.0"
   style="shape-rendering:geometricPrecision; text-rendering:geometricPrecision; image-rendering:optimizeQuality; fill-rule:evenodd; clip-rule:evenodd"
   viewBox="0 0 260 226"
   id="svg2"
   inkscape:version="0.48.4 r9939"
   sodipodi:docname="dragon.svg"><metadata
   id="metadata23"><rdf:RDF><cc:Work
       rdf:about=""><dc:format>image/svg+xml</dc:format><dc:type
         rdf:resource="http://purl.org/dc/dcmitype/StillImage" /><dc:title></dc:title></cc:Work></rdf:RDF></metadata><sodipodi:namedview
   pagecolor="#ffffff"
   bordercolor="#666666"
   borderopacity="1"
   objecttolerance="10"
   gridtolerance="10"
   guidetolerance="10"
   inkscape:pageopacity="0"
   inkscape:pageshadow="2"
   inkscape:window-width="1280"
   inkscape:window-height="738"
   id="namedview21"
   showgrid="false"
   inkscape:zoom="2.2670641"
   inkscape:cx="-8.822417"
   inkscape:cy="52.049698"
   inkscape:window-x="-8"
   inkscape:window-y="-8"
   inkscape:window-maximized="1"
   inkscape:current-layer="svg2" />
 <defs
   id="defs4">
  <style
   type="text/css"
   id="style6">
   
    .fil0 {fill:#DA251D}
    .fil1 {fill:#DA261F}
   
  </style>
 </defs>
 <g
   id="Capa_x0020_1"
   style="fill:#ffffff;fill-opacity:1">
  <metadata
   id="CorelCorpID_0Corel-Layer" />
  <g
   id="_291595184"
   style="fill:#ffffff;fill-opacity:1">
   <path
   class="fil0"
   d="M158 102l0 0zm0 0c4,-6 21,-14 29,-16 27,-7 49,4 68,24 1,1 2,3 3,3 4,3 2,-4 2,-6 -3,-7 -8,-15 -13,-21 -16,-20 -33,-35 -54,-49 -2,-2 -4,-3 -7,-4 -2,-2 -5,-3 -7,-5 -9,-4 -24,-12 -33,-12 -4,6 1,7 -1,9 -3,3 -6,-3 -10,-1 -2,2 4,12 7,20 2,9 3,17 2,27 -5,35 -31,58 -36,79 -5,18 4,36 23,32 0,-13 3,-26 8,-34 1,-3 2,-5 3,-7 15,-26 42,-40 72,-39 4,1 2,1 4,0 -5,-8 -20,-9 -29,-8 -10,2 -28,8 -31,8z"
   id="path11"
   style="fill:#ffffff;fill-opacity:1" />
   <path
   class="fil0"
   d="M53 155c0,21 4,34 19,48 12,12 35,19 53,15 4,0 7,-2 10,-2 -2,-2 -1,-1 -9,-2 -20,-3 -43,-13 -43,-37 0,-16 3,-26 9,-41 6,-17 19,-46 22,-63 3,-10 2,-27 -9,-30 0,22 -3,29 -16,45 -1,2 -3,3 -5,5l-14 17c-10,12 -17,28 -17,45z"
   id="path13"
   style="fill:#ffffff;fill-opacity:1" />
   <path
   class="fil0"
   d="M152 179c2,-1 4,-6 10,-5 -2,18 -7,35 -25,43 -24,10 -47,-1 -52,-1 0,0 0,0 1,1 1,0 1,0 2,0 11,5 22,8 32,9l8 0c13,-1 25,-7 35,-21 12,-17 20,-41 27,-50 7,-7 9,-6 13,-7 0,-9 0,-11 6,-16 1,0 1,-1 2,-1 -6,0 -16,4 -21,5 -6,3 -12,6 -17,10 -9,8 -20,22 -21,33z"
   id="path15"
   style="fill:#ffffff;fill-opacity:1" />
   <path
   class="fil0"
   d="M99 32l-3 12c-1,2 -1,2 -4,2 -1,-3 1,-5 3,-7 0,-1 1,-2 2,-3l2 -4zm1 -2c0,3 0,1 -1,2 0,-3 0,-1 1,-2zm0 -2c0,3 0,1 0,2 0,-3 0,-1 0,-2zm0 0c1,-6 2,-4 2,-14 0,-4 -2,-11 -2,-14 -2,3 6,28 -20,40 -5,3 -9,5 -14,7 -12,6 -7,12 -10,15 -5,4 -27,8 -9,29 1,2 0,1 2,2 7,-28 34,-23 38,-36 5,-15 12,-1 13,-18 0,-5 1,-9 2,-12 -2,1 0,-1 -2,1z"
   id="path17"
   style="fill:#ffffff;fill-opacity:1" />
   <path
   class="fil1"
   d="M10 117l0 -1 0 1zm0 0l0 3c2,1 0,-2 2,-1 1,5 0,4 0,9 8,-3 -4,-20 13,-21 0,8 -1,9 -4,14 9,-2 7,-18 12,-21 0,4 -1,0 -1,10l1 0c0,-8 7,-10 10,-23 -4,2 -2,11 -20,11 -7,-1 0,-1 -9,0l0 1c3,0 9,2 9,6 -9,0 -13,0 -13,10l-8 0c1,2 2,0 4,3 -3,0 -4,0 -6,1 0,4 1,6 1,9l1 0c1,-5 -1,-8 5,-9 0,4 -1,4 -2,7 4,-2 2,-6 5,-9z"
   id="path19"
   style="fill:#ffffff;fill-opacity:1" />
  </g>
 </g>
</svg>