<?xml version="1.0" encoding="UTF-8"?>
<!DOCTYPE svg PUBLIC "-//W3C//DTD SVG 1.0//EN" "http://www.w3.org/TR/2001/REC-SVG-20010904/DTD/svg10.dtd">
<!-- Creator: CorelDRAW X7 -->
<svg xmlns="http://www.w3.org/2000/svg" xml:space="preserve" width="11in" height="8.5in" version="1.0" style="shape-rendering:geometricPrecision; text-rendering:geometricPrecision; image-rendering:optimizeQuality; fill-rule:evenodd; clip-rule:evenodd"
viewBox="0 0 11000 8500"
 xmlns:xlink="http://www.w3.org/1999/xlink">
 <defs>
  <style type="text/css">
   <![CDATA[
    .str1 {stroke:#373435;stroke-width:6.94488}
    .str0 {stroke:#373435;stroke-width:3}
    .fil1 {fill:none}
    .fil0 {fill:#FEFEFE}
    .fil2 {fill:#52658C}
    .fil5 {fill:#FEFEFE;fill-rule:nonzero}
    .fil4 {fill:#373435;fill-rule:nonzero}
    .fil3 {fill:#373435;fill-rule:nonzero}
   ]]>
  </style>
 </defs>
 <g id="Capa_x0020_1">
  <metadata id="CorelCorpID_0Corel-Layer"/>
  <polygon class="fil0 str0" points="204,1357 2314,1357 2314,7150 204,7150 "/>
  <polygon class="fil0 str1" points="2301,7150 6467,7150 6467,5522 2301,5522 "/>
  <polygon class="fil0 str1" points="6467,7738 9944,7738 9944,6111 6467,6111 "/>
  <polygon class="fil0 str1" points="2301,2988 6459,2988 6459,1360 2301,1360 "/>
  <polygon class="fil0 str1" points="6464,2384 9935,2384 9935,756 6464,756 "/>
  <line class="fil1 str1" x1="4380" y1="1360" x2="4388" y2= "2983" />
  <line class="fil1 str1" x1="4384" y1="5522" x2="4384" y2= "7150" />
  <polygon class="fil2 str0" points="6506,6111 9934,6111 9934,8347 10618,8347 10618,6111 10620,6111 10620,5524 7495,5524 6465,4921 3633,4921 3633,3576 6462,3576 7495,2971 10620,2970 10620,2382 10620,2382 10620,153 9935,153 9935,2382 6486,2382 6462,2374 6462,2989 3633,2989 2304,2989 2304,3576 2304,4921 2302,4921 2302,5519 2304,5519 3633,5519 6465,5519 6465,6125 "/>
  <polygon class="fil0 str1" points="2301,7147 201,7147 201,4929 2301,4929 "/>
  <path class="fil3" d="M805 5988l43 0c10,0 18,1 23,3 7,2 13,5 18,11 5,5 9,11 11,19 3,8 4,17 4,28 0,10 -1,19 -3,26 -3,8 -8,15 -13,21 -4,4 -10,7 -17,9 -5,2 -12,3 -21,3l-45 0 0 -120zm24 21l0 79 18 0c6,0 11,-1 14,-2 4,-1 7,-2 10,-5 2,-2 4,-6 6,-11 2,-5 3,-13 3,-22 0,-9 -1,-16 -3,-21 -2,-5 -4,-9 -7,-12 -3,-2 -6,-4 -11,-5 -3,-1 -10,-1 -20,-1l-10 0zm95 99l0 -120 24 0 0 120 -24 0zm47 0l0 -120 51 0c13,0 22,2 28,4 6,2 10,6 14,11 3,6 5,12 5,19 0,9 -3,16 -8,22 -5,6 -13,10 -24,11 6,3 10,6 13,10 4,4 8,10 14,19l15 24 -29 0 -18 -26c-6,-10 -10,-15 -12,-18 -3,-2 -5,-4 -8,-5 -2,-1 -6,-1 -12,-1l-5 0 0 50 -24 0zm24 -69l18 0c12,0 19,-1 22,-2 3,-1 5,-2 7,-5 1,-2 2,-5 2,-9 0,-4 -1,-7 -3,-9 -2,-3 -5,-4 -9,-5 -2,0 -8,0 -18,0l-19 0 0 30zm97 69l0 -120 88 0 0 21 -64 0 0 26 59 0 0 20 -59 0 0 33 66 0 0 20 -90 0zm187 -44l23 7c-3,13 -9,23 -17,29 -9,7 -19,10 -32,10 -16,0 -29,-6 -39,-16 -10,-11 -16,-26 -16,-45 0,-20 6,-35 16,-46 10,-11 24,-17 40,-17 15,0 27,5 36,13 5,5 9,13 12,22l-24 6c-1,-6 -4,-11 -9,-15 -4,-3 -10,-5 -16,-5 -9,0 -16,3 -21,9 -6,7 -9,17 -9,31 0,15 3,26 8,32 6,7 13,10 22,10 6,0 12,-2 16,-6 5,-4 8,-10 10,-19zm120 0l24 7c-4,13 -10,23 -18,29 -8,7 -19,10 -32,10 -16,0 -29,-6 -39,-16 -10,-11 -15,-26 -15,-45 0,-20 5,-35 15,-46 10,-11 24,-17 41,-17 14,0 26,5 35,13 6,5 10,13 12,22l-23 6c-2,-6 -5,-11 -9,-15 -5,-3 -10,-5 -17,-5 -8,0 -16,3 -21,9 -6,7 -8,17 -8,31 0,15 2,26 8,32 5,7 12,10 21,10 6,0 12,-2 16,-6 5,-4 8,-10 10,-19zm44 44l0 -120 24 0 0 120 -24 0zm42 -59c0,-12 2,-23 5,-31 3,-6 7,-11 11,-16 5,-5 10,-9 16,-11 7,-3 16,-5 26,-5 17,0 31,6 42,17 10,11 16,26 16,45 0,20 -6,35 -16,46 -11,10 -25,16 -42,16 -18,0 -32,-5 -43,-16 -10,-11 -15,-26 -15,-45zm25 -1c0,14 3,24 9,31 6,7 14,10 24,10 9,0 17,-3 24,-10 6,-7 9,-17 9,-31 0,-14 -3,-24 -9,-31 -6,-7 -14,-10 -24,-10 -10,0 -18,3 -24,10 -6,7 -9,17 -9,31zm18 -70l12 -25 25 0 -22 25 -15 0zm91 130l0 -120 24 0 49 80 0 -80 22 0 0 120 -24 0 -48 -79 0 79 -23 0z"/>
  <polygon class="fil0 str1" points="2304,3577 204,3577 204,1359 2304,1359 "/>
  <path class="fil3" d="M1013 2210l23 8c-3,13 -9,22 -18,29 -8,6 -18,9 -31,9 -16,0 -29,-5 -39,-16 -11,-11 -16,-26 -16,-44 0,-20 5,-36 16,-47 10,-11 23,-16 40,-16 15,0 27,4 36,13 5,5 9,12 12,22l-24 6c-1,-7 -4,-12 -9,-15 -4,-4 -10,-5 -16,-5 -9,0 -16,3 -22,9 -5,6 -8,17 -8,31 0,15 3,26 8,32 6,6 13,10 21,10 7,0 12,-2 17,-6 5,-5 8,-11 10,-20zm44 44l0 -119 88 0 0 20 -64 0 0 27 60 0 0 20 -60 0 0 32 67 0 0 20 -91 0zm111 0l0 -119 24 0 49 80 0 -80 22 0 0 119 -24 0 -49 -78 0 78 -22 0zm147 0l0 -99 -35 0 0 -20 95 0 0 20 -35 0 0 99 -25 0zm75 0l0 -119 51 0c13,0 22,1 28,3 6,2 10,6 14,12 3,5 5,11 5,18 0,9 -3,17 -8,23 -5,5 -13,9 -23,11 5,3 9,6 12,10 4,3 8,10 14,19l15 23 -29 0 -17 -26c-7,-9 -11,-15 -13,-17 -2,-3 -5,-4 -7,-5 -3,-1 -7,-1 -13,-1l-5 0 0 49 -24 0zm24 -68l18 0c12,0 19,-1 22,-2 3,-1 5,-3 7,-5 1,-2 2,-5 2,-9 0,-4 -1,-7 -3,-10 -2,-2 -5,-4 -9,-4 -2,-1 -8,-1 -18,-1l-19 0 0 31zm92 9c0,-12 2,-22 5,-30 3,-6 7,-12 11,-17 5,-4 10,-8 16,-10 7,-4 16,-5 25,-5 18,0 32,5 43,16 10,11 16,26 16,46 0,19 -6,34 -16,45 -11,11 -25,17 -42,17 -18,0 -32,-6 -43,-17 -10,-11 -15,-26 -15,-45zm25 0c0,13 3,23 9,30 6,7 14,11 24,11 9,0 17,-4 23,-11 7,-6 10,-17 10,-31 0,-13 -3,-24 -9,-30 -6,-7 -14,-10 -24,-10 -10,0 -18,3 -24,10 -6,7 -9,17 -9,31zm-358 126l44 0c10,0 17,1 22,2 7,3 13,6 18,11 5,6 9,12 12,20 2,7 4,17 4,28 0,10 -2,18 -4,25 -3,9 -7,16 -13,21 -4,5 -10,8 -17,10 -5,2 -12,3 -21,3l-45 0 0 -120zm24 20l0 79 18 0c6,0 11,0 14,-1 4,-1 7,-2 10,-5 3,-2 5,-6 6,-11 2,-6 3,-13 3,-22 0,-9 -1,-16 -3,-21 -1,-5 -4,-9 -7,-12 -2,-3 -6,-5 -11,-5 -3,-1 -10,-2 -19,-2l-11 0zm96 100l0 -120 88 0 0 20 -64 0 0 27 60 0 0 20 -60 0 0 32 67 0 0 21 -91 0zm-730 66l24 0 0 65c0,10 1,17 1,20 1,5 4,9 7,12 4,3 10,4 16,4 7,0 12,-1 16,-4 3,-3 5,-6 6,-10 0,-4 1,-11 1,-21l0 -66 24 0 0 63c0,14 -1,25 -2,31 -1,5 -4,10 -7,15 -4,4 -8,7 -14,9 -6,3 -14,4 -23,4 -11,0 -20,-1 -26,-4 -6,-3 -10,-6 -14,-10 -3,-5 -5,-9 -7,-14 -1,-6 -2,-17 -2,-30l0 -64zm114 81l24 -2c1,8 4,13 8,17 5,4 10,6 18,6 7,0 13,-2 17,-5 4,-4 6,-7 6,-12 0,-3 -1,-5 -2,-7 -2,-2 -5,-4 -9,-5 -3,-1 -9,-3 -19,-5 -13,-4 -22,-8 -27,-12 -8,-7 -11,-15 -11,-24 0,-6 1,-12 5,-17 3,-6 8,-10 15,-13 6,-2 14,-4 23,-4 15,0 26,4 34,10 7,7 11,16 12,27l-25 1c-1,-7 -3,-11 -6,-14 -3,-2 -9,-4 -15,-4 -7,0 -13,2 -17,5 -2,1 -3,4 -3,7 0,3 1,5 3,7 3,3 11,6 22,8 12,3 21,6 26,9 6,3 10,7 13,12 4,5 5,11 5,19 0,7 -2,13 -6,19 -3,6 -9,11 -16,14 -7,2 -15,4 -26,4 -15,0 -26,-4 -34,-11 -8,-6 -13,-17 -15,-30zm113 -20c0,-12 1,-23 5,-31 3,-6 7,-11 11,-16 5,-5 10,-9 16,-11 7,-3 16,-5 25,-5 18,0 32,6 43,17 10,11 15,26 15,45 0,20 -5,35 -15,46 -11,10 -25,16 -42,16 -18,0 -32,-6 -43,-16 -10,-11 -15,-26 -15,-45zm24 -1c0,14 4,24 10,31 6,7 14,10 24,10 9,0 17,-3 23,-10 7,-7 10,-17 10,-31 0,-14 -3,-24 -9,-31 -6,-7 -14,-10 -24,-10 -10,0 -18,3 -24,10 -6,7 -10,17 -10,31zm104 21l23 -2c2,8 5,13 9,17 4,4 10,6 17,6 8,0 14,-2 18,-5 4,-4 6,-7 6,-12 0,-3 -1,-5 -3,-7 -1,-2 -4,-4 -8,-5 -3,-1 -10,-3 -20,-5 -12,-4 -21,-8 -27,-12 -7,-7 -11,-15 -11,-24 0,-6 2,-12 6,-17 3,-6 8,-10 14,-13 7,-2 15,-4 24,-4 15,0 26,4 34,10 7,7 11,16 11,27l-24 1c-1,-7 -3,-11 -6,-14 -4,-2 -9,-4 -15,-4 -7,0 -13,2 -17,5 -2,1 -4,4 -4,7 0,3 2,5 4,7 3,3 10,6 22,8 12,3 20,6 26,9 6,3 10,7 13,12 3,5 5,11 5,19 0,7 -2,13 -6,19 -4,6 -9,11 -16,14 -7,2 -15,4 -26,4 -15,0 -26,-4 -35,-11 -8,-6 -12,-17 -14,-30zm163 39l0 -120 37 0 21 82 21 -82 36 0 0 120 -22 0 0 -94 -24 94 -23 0 -23 -94 0 94 -23 0zm140 -120l24 0 0 65c0,10 0,17 1,20 1,5 3,9 7,12 4,3 9,4 16,4 6,0 12,-1 15,-4 3,-3 6,-6 6,-10 1,-4 1,-11 1,-21l0 -66 24 0 0 63c0,14 0,25 -2,31 -1,5 -3,10 -7,15 -3,4 -8,7 -14,9 -6,3 -13,4 -23,4 -11,0 -20,-1 -25,-4 -6,-3 -11,-6 -14,-10 -4,-5 -6,-9 -7,-14 -2,-6 -2,-17 -2,-30l0 -64zm121 120l0 -119 24 0 0 99 60 0 0 20 -84 0zm115 0l0 -99 -35 0 0 -21 95 0 0 21 -36 0 0 99 -24 0zm74 0l0 -120 25 0 0 120 -25 0zm48 0l0 -120 38 0c15,0 24,1 29,2 7,2 12,6 17,12 5,6 7,14 7,23 0,7 -1,14 -4,19 -3,5 -6,9 -10,11 -4,3 -8,5 -13,6 -5,1 -14,2 -25,2l-15 0 0 45 -24 0zm24 -99l0 34 13 0c9,0 16,-1 19,-2 3,-2 5,-4 7,-6 2,-3 3,-6 3,-10 0,-4 -1,-7 -4,-10 -2,-3 -6,-5 -9,-6 -3,0 -9,0 -18,0l-11 0zm87 99l0 -119 25 0 0 99 59 0 0 20 -84 0zm101 0l0 -120 89 0 0 21 -64 0 0 26 59 0 0 20 -59 0 0 33 66 0 0 20 -91 0zm105 -39l24 -2c1,8 4,13 8,17 5,4 10,6 18,6 8,0 13,-2 17,-5 4,-4 6,-7 6,-12 0,-3 -1,-5 -2,-7 -2,-2 -5,-4 -9,-5 -3,-1 -9,-3 -19,-5 -13,-4 -22,-8 -27,-12 -8,-7 -11,-15 -11,-24 0,-6 2,-12 5,-17 3,-6 8,-10 15,-13 6,-2 14,-4 23,-4 15,0 26,4 34,10 7,7 11,16 12,27l-24 1c-1,-7 -4,-11 -7,-14 -3,-2 -8,-4 -15,-4 -7,0 -12,2 -16,5 -3,1 -4,4 -4,7 0,3 1,5 3,7 3,3 11,6 22,8 12,3 21,6 26,9 6,3 10,7 14,12 3,5 4,11 4,19 0,7 -2,13 -5,19 -4,6 -10,11 -16,14 -7,2 -16,4 -26,4 -16,0 -27,-4 -35,-11 -8,-6 -13,-17 -15,-30z"/>
  <path class="fil4" d="M3129 2184l15 -2c0,6 2,11 5,15 2,4 6,7 12,9 5,3 11,4 18,4 6,0 11,-1 16,-3 5,-2 8,-4 10,-7 2,-3 4,-7 4,-10 0,-4 -2,-7 -4,-10 -2,-3 -5,-5 -10,-7 -4,-1 -11,-3 -22,-6 -11,-3 -18,-5 -23,-7 -5,-3 -10,-7 -12,-12 -3,-4 -5,-9 -5,-14 0,-6 2,-12 6,-17 3,-6 8,-10 15,-12 6,-3 13,-4 21,-4 9,0 17,1 24,4 7,3 12,7 15,13 4,5 6,11 6,18l-15 1c-1,-7 -3,-13 -8,-17 -5,-3 -12,-5 -21,-5 -10,0 -17,1 -21,5 -4,3 -6,8 -6,13 0,4 1,7 4,10 3,3 11,6 24,9 13,3 22,5 26,7 7,3 12,7 16,12 3,5 5,11 5,17 0,7 -2,13 -6,18 -3,6 -9,10 -15,13 -7,3 -15,5 -23,5 -11,0 -20,-2 -27,-5 -8,-3 -13,-8 -18,-14 -4,-6 -6,-13 -6,-21zm103 38l46 -119 17 0 49 119 -18 0 -14 -36 -50 0 -13 36 -17 0zm34 -49l41 0 -12 -33c-4,-10 -7,-18 -9,-25 -1,8 -4,15 -6,23l-14 35zm90 49l0 -119 16 0 0 105 58 0 0 14 -74 0zm88 -58c0,-20 6,-35 16,-47 11,-11 25,-16 41,-16 11,0 21,2 30,8 9,5 16,12 20,22 5,9 7,20 7,32 0,12 -2,22 -7,32 -5,10 -12,17 -21,22 -9,5 -18,7 -29,7 -11,0 -21,-3 -30,-8 -9,-6 -15,-13 -20,-22 -4,-10 -7,-20 -7,-30zm17 0c0,15 3,26 11,34 8,8 18,12 29,12 12,0 22,-4 30,-12 7,-8 11,-20 11,-36 0,-9 -2,-18 -5,-25 -3,-7 -8,-13 -14,-17 -7,-4 -14,-6 -22,-6 -11,0 -20,4 -28,12 -8,7 -12,20 -12,38zm28 -69l11 -23 19 0 -18 23 -12 0zm90 127l0 -119 16 0 62 93 0 -93 16 0 0 119 -17 0 -62 -94 0 94 -15 0z"/>
  <path class="fil4" d="M5159 2170l15 -2c0,6 2,11 5,15 2,4 6,7 12,10 5,2 11,3 18,3 6,0 11,-1 16,-3 5,-1 8,-4 10,-7 2,-3 4,-7 4,-10 0,-4 -2,-7 -4,-10 -2,-3 -5,-5 -10,-7 -4,-1 -11,-3 -22,-6 -11,-2 -18,-5 -23,-7 -5,-3 -10,-7 -12,-11 -3,-5 -5,-10 -5,-15 0,-6 2,-12 6,-17 3,-5 8,-9 15,-12 6,-3 13,-4 21,-4 9,0 17,1 24,4 7,3 12,7 15,13 4,5 6,11 6,18l-15 2c-1,-8 -3,-14 -8,-17 -5,-4 -12,-6 -21,-6 -10,0 -17,2 -21,5 -4,4 -6,8 -6,13 0,4 1,7 4,10 3,3 11,6 24,9 13,3 22,5 26,7 7,4 12,8 16,13 3,4 5,10 5,16 0,7 -2,13 -6,18 -3,6 -9,10 -15,13 -7,4 -15,5 -23,5 -11,0 -20,-1 -27,-5 -8,-3 -13,-7 -18,-14 -4,-6 -6,-13 -6,-21zm103 38l46 -119 17 0 49 119 -18 0 -14 -36 -50 0 -13 36 -17 0zm34 -49l41 0 -12 -33c-4,-10 -7,-18 -9,-25 -1,8 -4,16 -6,23l-14 35zm90 49l0 -119 16 0 0 105 58 0 0 14 -74 0zm88 -58c0,-20 6,-35 16,-46 11,-12 25,-17 41,-17 11,0 21,2 30,8 9,5 16,12 20,22 5,9 7,20 7,32 0,12 -2,23 -7,32 -5,10 -12,17 -21,22 -9,5 -18,7 -29,7 -11,0 -21,-3 -30,-8 -9,-5 -15,-13 -20,-22 -4,-10 -7,-20 -7,-30zm17 0c0,15 3,26 11,34 8,8 18,13 29,13 12,0 22,-5 30,-13 7,-8 11,-20 11,-35 0,-10 -2,-19 -5,-26 -3,-7 -8,-13 -14,-17 -7,-4 -14,-6 -21,-6 -12,0 -21,4 -29,12 -8,8 -12,20 -12,38zm28 -69l11 -22 19 0 -18 22 -12 0zm90 127l0 -119 16 0 62 93 0 -93 16 0 0 119 -17 0 -62 -94 0 94 -15 0z"/>
  <polygon class="fil0 str1" points="6457,760 8015,760 8015,2387 6457,2387 "/>
  <path class="fil4" d="M6805 1648l0 -119 44 0c9,0 17,1 22,4 6,2 10,6 13,11 3,5 5,10 5,16 0,5 -2,10 -4,14 -3,5 -7,8 -13,11 7,2 13,6 17,11 4,5 6,11 6,18 0,5 -2,11 -4,15 -2,5 -5,9 -9,12 -3,2 -7,4 -13,5 -5,2 -11,2 -19,2l-45 0zm15 -69l26 0c7,0 12,0 15,-1 4,-1 7,-3 9,-6 2,-3 3,-6 3,-11 0,-4 -1,-7 -3,-10 -1,-3 -4,-5 -8,-6 -3,-1 -9,-2 -18,-2l-24 0 0 36zm0 55l30 0c5,0 9,0 11,0 3,-1 7,-2 9,-3 2,-2 4,-4 6,-7 2,-3 2,-6 2,-10 0,-5 -1,-8 -3,-12 -2,-3 -6,-5 -10,-7 -4,-1 -9,-2 -17,-2l-28 0 0 41zm99 14l0 -119 16 0 0 119 -16 0zm43 0l0 -119 45 0c9,0 16,1 22,4 5,2 10,6 13,11 3,5 4,10 4,16 0,5 -1,10 -4,14 -3,5 -7,8 -12,11 7,2 12,6 16,11 4,5 6,11 6,18 0,5 -1,11 -3,15 -3,5 -6,9 -9,12 -4,2 -8,4 -13,5 -5,2 -12,2 -19,2l-46 0zm16 -69l26 0c7,0 12,0 15,-1 4,-1 7,-3 9,-6 2,-3 3,-6 3,-11 0,-4 -1,-7 -3,-10 -2,-3 -5,-5 -8,-6 -4,-1 -10,-2 -18,-2l-24 0 0 36zm0 55l30 0c5,0 8,0 10,0 4,-1 7,-2 9,-3 3,-2 5,-4 6,-7 2,-3 3,-6 3,-10 0,-5 -1,-8 -4,-12 -2,-3 -5,-5 -9,-7 -4,-1 -10,-2 -18,-2l-27 0 0 41zm95 14l0 -119 16 0 0 105 59 0 0 14 -75 0zm96 0l0 -119 16 0 0 119 -16 0zm39 -58c0,-19 5,-35 16,-46 11,-11 24,-17 41,-17 11,0 21,3 30,8 9,5 16,13 20,22 5,9 7,20 7,32 0,12 -2,23 -7,32 -5,10 -12,17 -21,22 -9,5 -19,7 -29,7 -11,0 -21,-2 -30,-8 -9,-5 -16,-13 -20,-22 -5,-9 -7,-19 -7,-30zm16 1c0,14 4,25 12,34 8,8 17,12 29,12 12,0 22,-4 29,-13 8,-8 12,-20 12,-35 0,-10 -2,-18 -5,-25 -3,-8 -8,-13 -14,-17 -7,-4 -14,-6 -22,-6 -11,0 -21,4 -29,11 -8,8 -12,21 -12,39zm149 57l0 -105 -40 0 0 -14 95 0 0 14 -39 0 0 105 -16 0zm72 0l0 -119 86 0 0 14 -71 0 0 37 66 0 0 14 -66 0 0 40 74 0 0 14 -89 0zm195 -41l16 4c-3,13 -9,22 -18,29 -8,7 -19,10 -31,10 -13,0 -23,-2 -31,-7 -8,-6 -15,-13 -19,-23 -4,-10 -6,-21 -6,-32 0,-13 2,-23 7,-33 5,-9 12,-16 20,-21 9,-5 19,-7 29,-7 12,0 22,3 30,9 8,6 14,15 17,26l-15 3c-3,-8 -7,-15 -12,-18 -6,-4 -12,-6 -20,-6 -9,0 -17,2 -23,6 -6,5 -11,10 -13,18 -2,7 -4,15 -4,23 0,10 2,19 5,26 3,8 7,14 13,17 7,4 13,6 21,6 8,0 16,-3 22,-8 6,-5 10,-12 12,-22zm23 41l45 -119 18 0 48 119 -18 0 -13 -36 -51 0 -13 36 -16 0zm34 -49l41 0 -13 -33c-3,-10 -6,-18 -8,-25 -2,8 -4,16 -7,23l-13 35z"/>
  <path class="fil4" d="M8752 1624l15 -1c0,6 2,11 4,14 3,4 7,7 12,10 6,2 12,3 19,3 6,0 11,-1 16,-2 4,-2 8,-5 10,-8 2,-3 3,-6 3,-10 0,-4 -1,-7 -3,-10 -2,-3 -6,-5 -11,-7 -3,-1 -10,-3 -21,-6 -11,-2 -19,-5 -23,-7 -6,-3 -10,-7 -13,-11 -2,-5 -4,-10 -4,-15 0,-6 2,-12 5,-17 4,-5 9,-9 15,-12 7,-3 14,-4 22,-4 9,0 17,1 24,4 6,3 12,7 15,13 4,5 6,12 6,19l-15 1c-1,-8 -4,-13 -8,-17 -5,-4 -12,-6 -21,-6 -10,0 -17,2 -21,5 -4,4 -7,8 -7,13 0,4 2,8 5,10 3,3 11,6 24,9 13,3 21,5 26,8 7,3 12,7 16,12 3,5 5,10 5,17 0,6 -2,12 -6,18 -4,5 -9,10 -16,13 -6,3 -14,4 -23,4 -10,0 -19,-1 -27,-4 -7,-4 -13,-8 -17,-15 -4,-6 -6,-13 -6,-21zm103 38l46 -119 17 0 49 119 -18 0 -14 -36 -50 0 -13 36 -17 0zm34 -49l41 0 -13 -33c-3,-10 -6,-18 -8,-25 -2,8 -4,16 -7,23l-13 35zm90 49l0 -119 15 0 0 105 59 0 0 14 -74 0zm88 -58c0,-20 5,-35 16,-46 11,-11 24,-17 41,-17 11,0 21,3 30,8 9,5 16,12 20,22 5,9 7,20 7,32 0,12 -2,23 -7,32 -5,10 -12,17 -21,22 -9,5 -19,7 -29,7 -11,0 -21,-2 -30,-8 -9,-5 -16,-13 -20,-22 -5,-9 -7,-19 -7,-30zm16 1c0,14 4,25 12,33 8,9 17,13 29,13 12,0 22,-4 29,-13 8,-8 12,-20 12,-35 0,-10 -2,-18 -5,-26 -3,-7 -8,-12 -14,-16 -7,-4 -14,-6 -22,-6 -11,0 -20,3 -29,11 -8,8 -12,21 -12,39zm29 -69l11 -23 19 0 -18 23 -12 0zm89 126l0 -119 17 0 62 94 0 -94 15 0 0 119 -16 0 -62 -93 0 93 -16 0z"/>
  <path class="fil4" d="M292 7829l0 -239 90 0c16,0 28,1 37,3 11,2 21,5 29,11 8,5 15,13 19,23 5,10 8,20 8,32 0,20 -7,38 -20,52 -13,14 -36,21 -70,21l-61 0 0 97 -32 0zm32 -125l62 0c20,0 34,-4 43,-12 9,-7 13,-18 13,-32 0,-10 -3,-18 -8,-25 -5,-8 -11,-12 -20,-15 -5,-1 -15,-2 -29,-2l-61 0 0 86zm189 125l0 -239 32 0 0 211 117 0 0 28 -149 0zm161 0l91 -239 35 0 97 239 -36 0 -27 -72 -101 0 -26 72 -33 0zm68 -98l82 0 -25 -66c-8,-20 -13,-37 -17,-50 -3,16 -8,31 -13,46l-27 70zm180 98l0 -239 32 0 126 188 0 -188 30 0 0 239 -32 0 -126 -187 0 187 -30 0zm302 0l0 -211 -79 0 0 -28 189 0 0 28 -79 0 0 211 -31 0zm92 0l91 -239 35 0 97 239 -36 0 -27 -72 -101 0 -26 72 -33 0zm68 -98l82 0 -25 -66c-8,-20 -13,-37 -17,-50 -4,16 -8,31 -13,46l-27 70zm253 98l0 -239 90 0c18,0 33,3 44,8 11,4 19,12 25,22 7,10 10,20 10,31 0,11 -3,20 -8,29 -6,9 -14,16 -25,22 14,4 25,11 33,22 8,10 11,22 11,36 0,11 -2,21 -7,31 -4,10 -10,17 -17,22 -7,5 -16,9 -26,12 -11,3 -24,4 -39,4l-91 0zm32 -138l51 0c14,0 24,-1 31,-3 8,-3 14,-7 18,-12 4,-6 6,-13 6,-21 0,-8 -2,-15 -6,-21 -4,-6 -9,-10 -16,-12 -7,-3 -19,-4 -36,-4l-48 0 0 73zm0 110l59 0c10,0 18,0 22,-1 7,-1 13,-4 18,-7 5,-3 9,-7 12,-13 3,-6 5,-13 5,-20 0,-9 -2,-17 -7,-23 -5,-7 -11,-12 -19,-14 -8,-3 -20,-4 -35,-4l-55 0 0 82zm166 28l91 -239 35 0 97 239 -36 0 -27 -72 -101 0 -26 72 -33 0zm68 -98l82 0 -25 -66c-8,-20 -13,-37 -17,-50 -4,16 -8,31 -14,46l-26 70zm164 30l28 -4c1,19 5,31 11,38 6,7 14,10 25,10 8,0 15,-2 20,-5 6,-4 10,-9 12,-15 2,-7 3,-17 3,-30l0 -165 32 0 0 163c0,20 -2,35 -7,46 -5,11 -13,20 -23,25 -10,6 -23,9 -37,9 -21,0 -37,-6 -48,-18 -11,-12 -16,-30 -16,-54zm157 68l91 -239 35 0 97 239 -36 0 -27 -72 -101 0 -26 72 -33 0zm68 -98l82 0 -25 -66c-8,-20 -13,-37 -17,-50 -4,16 -8,31 -14,46l-26 70z"/>
  <path class="fil4" d="M3135 6323l15 -2c1,6 2,11 5,15 2,4 6,7 12,9 5,3 11,4 18,4 6,0 11,-1 16,-3 5,-2 8,-4 10,-7 3,-3 4,-7 4,-10 0,-4 -1,-7 -4,-10 -2,-3 -5,-5 -10,-7 -4,-1 -11,-3 -22,-6 -11,-3 -18,-5 -23,-8 -5,-3 -10,-6 -12,-11 -3,-4 -4,-9 -4,-15 0,-6 1,-11 5,-16 3,-6 8,-10 15,-12 6,-3 13,-4 22,-4 8,0 16,1 23,4 7,3 12,7 15,12 4,6 6,12 6,19l-15 1c-1,-7 -3,-13 -8,-17 -5,-4 -12,-5 -21,-5 -9,0 -16,1 -21,5 -4,3 -6,8 -6,12 0,5 1,8 4,11 3,3 11,6 24,9 13,2 22,5 27,7 6,3 12,7 15,12 3,5 5,11 5,17 0,7 -2,13 -6,18 -3,6 -8,10 -15,13 -7,3 -15,5 -23,5 -11,0 -20,-2 -27,-5 -8,-3 -13,-8 -17,-14 -5,-6 -7,-13 -7,-21zm103 38l46 -119 17 0 49 119 -18 0 -14 -36 -50 0 -13 36 -17 0zm35 -49l40 0 -12 -33c-4,-10 -7,-19 -9,-25 -1,8 -4,15 -6,23l-13 35zm89 49l0 -119 16 0 0 105 58 0 0 14 -74 0zm88 -58c0,-20 6,-35 16,-47 11,-11 25,-16 42,-16 11,0 20,2 29,7 9,6 16,13 21,22 4,10 7,20 7,32 0,12 -3,23 -8,33 -5,9 -12,17 -21,22 -9,4 -18,7 -29,7 -11,0 -21,-3 -30,-8 -9,-6 -15,-13 -20,-22 -4,-10 -7,-20 -7,-30zm17 0c0,14 4,26 11,34 8,8 18,12 29,12 12,0 22,-4 30,-12 7,-8 11,-20 11,-36 0,-9 -1,-18 -5,-25 -3,-7 -8,-13 -14,-17 -6,-4 -14,-6 -21,-6 -12,0 -21,4 -29,12 -8,7 -12,20 -12,38zm28 -69l11 -23 19 0 -17 23 -13 0zm90 127l0 -119 16 0 63 93 0 -93 15 0 0 119 -17 0 -62 -94 0 94 -15 0z"/>
  <path class="fil4" d="M5195 6309l15 -2c1,6 2,11 5,15 2,4 6,7 12,9 5,3 11,4 18,4 6,0 11,-1 16,-3 5,-2 8,-4 10,-7 3,-3 4,-7 4,-10 0,-4 -1,-7 -4,-10 -2,-3 -5,-5 -10,-7 -4,-1 -11,-3 -22,-6 -11,-3 -18,-5 -23,-7 -5,-3 -10,-7 -12,-12 -3,-4 -4,-9 -4,-14 0,-6 1,-12 5,-17 3,-6 8,-10 15,-12 6,-3 13,-4 22,-4 8,0 16,1 23,4 7,3 12,7 15,13 4,5 6,11 6,18l-15 1c-1,-7 -3,-13 -8,-17 -5,-3 -12,-5 -21,-5 -9,0 -16,1 -21,5 -4,3 -6,8 -6,13 0,4 1,7 4,10 3,3 11,6 24,9 13,3 22,5 27,7 6,3 12,7 15,12 3,5 5,11 5,17 0,7 -2,13 -6,18 -3,6 -8,10 -15,13 -7,3 -15,5 -23,5 -11,0 -20,-2 -27,-5 -8,-3 -13,-8 -17,-14 -5,-6 -7,-13 -7,-21zm103 38l46 -119 17 0 49 119 -18 0 -14 -36 -50 0 -13 36 -17 0zm35 -49l40 0 -12 -33c-4,-10 -7,-18 -9,-25 -1,8 -4,15 -6,23l-13 35zm89 49l0 -119 16 0 0 105 58 0 0 14 -74 0zm88 -58c0,-20 6,-35 16,-47 11,-11 25,-16 42,-16 11,0 20,2 29,8 9,5 16,12 21,22 4,9 7,20 7,32 0,12 -3,22 -8,32 -5,10 -12,17 -21,22 -9,5 -18,7 -29,7 -11,0 -21,-3 -30,-8 -9,-6 -15,-13 -20,-22 -4,-10 -7,-20 -7,-30zm17 0c0,15 4,26 11,34 8,8 18,12 29,12 12,0 22,-4 30,-12 7,-8 11,-20 11,-36 0,-9 -1,-18 -5,-25 -3,-7 -8,-13 -14,-17 -6,-4 -14,-6 -21,-6 -12,0 -21,4 -29,12 -8,7 -12,20 -12,38zm28 -69l11 -23 19 0 -17 23 -13 0zm90 127l0 -119 16 0 63 93 0 -93 15 0 0 119 -17 0 -62 -94 0 94 -15 0z"/>
  <path class="fil4" d="M6995 6868l0 -105 -39 0 0 -14 95 0 0 14 -40 0 0 105 -16 0zm46 0l46 -119 18 0 48 119 -18 0 -14 -36 -50 0 -13 36 -17 0zm35 -49l40 0 -12 -33c-4,-10 -7,-18 -9,-25 -1,8 -3,16 -6,23l-13 35zm89 49l0 -119 16 0 0 105 59 0 0 14 -75 0zm93 0l0 -119 16 0 0 105 58 0 0 14 -74 0zm93 0l0 -119 87 0 0 14 -71 0 0 36 66 0 0 14 -66 0 0 41 73 0 0 14 -89 0zm112 0l0 -119 52 0c11,0 19,1 25,3 5,2 10,6 13,11 3,6 5,12 5,18 0,9 -3,16 -8,22 -6,6 -14,9 -26,11 5,2 8,4 10,6 4,4 9,9 13,16l21 32 -20 0 -16 -25c-5,-7 -8,-12 -11,-16 -3,-4 -6,-7 -8,-8 -3,-2 -5,-3 -8,-3 -1,-1 -4,-1 -8,-1l-19 0 0 53 -15 0zm15 -67l34 0c8,0 13,0 17,-2 4,-1 7,-4 9,-7 3,-3 4,-7 4,-11 0,-5 -2,-10 -7,-14 -4,-3 -10,-5 -19,-5l-38 0 0 39zm-320 253l0 -119 41 0c9,0 17,1 21,2 7,1 13,4 18,8 6,6 11,12 14,21 3,8 5,17 5,28 0,9 -1,17 -3,24 -3,7 -5,13 -9,17 -3,5 -6,9 -10,11 -4,3 -9,5 -15,6 -5,2 -12,2 -19,2l-43 0zm16 -14l25 0c8,0 14,0 19,-2 4,-1 8,-3 11,-6 3,-4 6,-9 8,-15 2,-7 3,-14 3,-23 0,-13 -2,-22 -6,-29 -4,-7 -9,-11 -15,-14 -4,-1 -11,-2 -20,-2l-25 0 0 91zm105 14l0 -119 86 0 0 14 -70 0 0 37 65 0 0 14 -65 0 0 40 73 0 0 14 -89 0zm-295 186l46 -119 18 0 48 119 -18 0 -14 -36 -50 0 -13 36 -17 0zm35 -49l40 0 -12 -33c-4,-10 -7,-18 -9,-25 -1,8 -3,16 -6,23l-13 35zm90 49l0 -119 53 0c11,0 19,1 24,3 6,3 10,6 13,12 4,5 5,11 5,18 0,8 -2,15 -8,21 -5,6 -14,10 -25,11 4,2 7,4 9,6 5,4 9,10 13,16l21 32 -20 0 -15 -24c-5,-8 -9,-13 -12,-17 -3,-4 -6,-6 -8,-8 -2,-1 -5,-2 -7,-3 -2,0 -5,-1 -9,-1l-18 0 0 53 -16 0zm16 -66l34 0c7,0 13,-1 17,-2 4,-2 7,-4 9,-8 2,-3 3,-6 3,-10 0,-6 -2,-11 -6,-14 -4,-4 -11,-6 -19,-6l-38 0 0 40zm131 66l0 -105 -39 0 0 -14 95 0 0 14 -40 0 0 105 -16 0zm72 0l0 -119 86 0 0 14 -70 0 0 37 66 0 0 14 -66 0 0 40 73 0 0 14 -89 0zm106 -38l15 -1c0,6 2,11 5,15 2,3 6,7 12,9 5,2 11,3 18,3 6,0 11,0 16,-2 4,-2 8,-4 10,-8 2,-3 4,-6 4,-10 0,-4 -2,-7 -4,-10 -2,-2 -5,-5 -10,-7 -4,-1 -11,-3 -22,-5 -11,-3 -18,-6 -23,-8 -5,-3 -10,-7 -12,-11 -3,-4 -5,-9 -5,-15 0,-6 2,-12 6,-17 3,-5 8,-9 14,-12 7,-2 14,-4 22,-4 9,0 17,2 24,4 7,3 12,7 15,13 4,6 6,12 6,19l-15 1c-1,-8 -4,-13 -8,-17 -5,-4 -12,-6 -21,-6 -10,0 -17,2 -21,5 -4,4 -6,8 -6,13 0,4 1,8 4,11 3,2 11,5 24,8 13,3 22,6 26,8 7,3 12,7 16,12 3,5 5,10 5,17 0,6 -2,12 -6,18 -3,5 -9,10 -15,13 -7,3 -15,4 -23,4 -11,0 -20,-1 -27,-4 -8,-3 -13,-8 -18,-14 -4,-7 -6,-14 -6,-22z"/>
  <polygon class="fil0 str1" points="9934,7735 7999,7735 7999,6113 9934,6113 "/>
  <path class="fil3" d="M8359 7055l0 -118 24 0 0 98 60 0 0 20 -84 0zm209 0l-26 0 -11 -27 -47 0 -10 27 -26 0 46 -119 26 0 48 119zm-44 -47l-17 -44 -16 44 33 0zm57 -72l47 0c10,0 17,0 21,1 5,1 9,3 13,5 4,3 7,6 9,10 3,4 4,9 4,14 0,5 -2,11 -5,15 -3,5 -7,8 -12,11 7,2 13,5 17,11 4,5 6,11 6,18 0,5 -2,10 -4,15 -3,6 -6,10 -11,13 -4,3 -9,5 -16,5 -4,1 -13,1 -29,1l-40 0 0 -119zm24 20l0 27 16 0c9,0 15,0 17,0 4,-1 7,-2 10,-4 2,-3 3,-6 3,-10 0,-3 -1,-6 -3,-9 -2,-2 -5,-3 -9,-4 -2,0 -9,0 -20,0l-14 0zm0 47l0 32 22 0c9,0 14,0 17,-1 3,0 6,-2 8,-4 3,-3 4,-6 4,-11 0,-3 -1,-6 -3,-9 -2,-2 -4,-4 -7,-5 -4,-1 -11,-2 -22,-2l-19 0zm91 -7c0,-12 2,-22 5,-30 3,-6 7,-12 12,-17 4,-5 9,-8 15,-10 7,-4 16,-5 26,-5 17,0 31,5 42,16 10,11 16,26 16,46 0,19 -5,34 -16,45 -10,11 -24,16 -42,16 -18,0 -32,-5 -42,-16 -11,-11 -16,-26 -16,-45zm25 0c0,13 3,23 9,30 6,7 14,11 24,11 10,0 17,-4 24,-11 6,-7 9,-17 9,-31 0,-13 -3,-24 -9,-30 -6,-7 -14,-11 -24,-11 -10,0 -18,4 -24,11 -6,7 -9,17 -9,31zm110 59l0 -119 50 0c13,0 22,1 28,3 6,2 11,6 14,12 3,5 5,11 5,18 0,9 -2,17 -8,23 -5,5 -13,9 -23,11 5,3 9,6 13,10 3,3 8,10 13,19l15 23 -29 0 -17 -26c-6,-9 -11,-15 -13,-17 -2,-3 -5,-4 -7,-5 -3,-1 -7,-2 -12,-2l-5 0 0 50 -24 0zm24 -69l18 0c11,0 18,0 21,-1 3,-1 5,-3 7,-5 2,-2 2,-5 2,-9 0,-4 -1,-7 -3,-10 -2,-2 -5,-4 -9,-4 -2,-1 -8,-1 -17,-1l-19 0 0 30zm203 69l-26 0 -10 -27 -48 0 -10 27 -25 0 46 -119 26 0 47 119zm-44 -47l-16 -44 -16 44 32 0zm72 47l0 -99 -36 0 0 -20 95 0 0 20 -35 0 0 99 -24 0zm67 -59c0,-12 2,-22 5,-30 3,-6 7,-12 11,-17 5,-5 10,-8 16,-10 7,-4 16,-5 25,-5 18,0 32,5 43,16 10,11 16,26 16,46 0,19 -6,34 -16,45 -11,11 -25,16 -42,16 -18,0 -32,-5 -43,-16 -10,-11 -15,-26 -15,-45zm25 0c0,13 3,23 9,30 6,7 14,11 24,11 9,0 17,-4 23,-11 7,-7 10,-17 10,-31 0,-13 -3,-24 -9,-30 -6,-7 -14,-11 -24,-11 -10,0 -18,4 -24,11 -6,7 -9,17 -9,31zm109 59l0 -119 51 0c13,0 22,1 28,3 6,2 10,6 14,12 3,5 5,11 5,18 0,9 -3,17 -8,23 -5,5 -13,9 -23,11 5,3 9,6 12,10 4,3 8,10 14,19l15 23 -29 0 -17 -26c-7,-9 -11,-15 -13,-17 -2,-3 -5,-4 -7,-5 -3,-1 -7,-2 -13,-2l-4 0 0 50 -25 0zm25 -69l17 0c12,0 19,0 22,-1 3,-1 5,-3 7,-5 1,-2 2,-5 2,-9 0,-4 -1,-7 -3,-10 -2,-2 -5,-4 -9,-4 -2,-1 -8,-1 -18,-1l-18 0 0 30zm95 69l0 -119 24 0 0 119 -24 0zm42 -59c0,-12 2,-22 5,-30 3,-6 7,-12 12,-17 4,-5 9,-8 15,-10 7,-4 16,-5 26,-5 17,0 31,5 42,16 11,11 16,26 16,46 0,19 -5,34 -16,45 -10,11 -24,16 -42,16 -18,0 -32,-5 -42,-16 -11,-11 -16,-26 -16,-45zm25 0c0,13 3,23 9,30 6,7 14,11 24,11 10,0 18,-4 24,-11 6,-7 9,-17 9,-31 0,-13 -3,-24 -9,-30 -6,-7 -14,-11 -24,-11 -10,0 -18,4 -24,11 -6,7 -9,17 -9,31z"/>
  <line class="fil1 str1" x1="2304" y1="4248" x2="202" y2= "4248" />
  <path class="fil3" d="M615 3869l48 0c9,0 16,0 21,1 5,0 9,2 12,5 4,2 7,5 10,10 2,4 3,8 3,13 0,6 -1,11 -4,16 -3,4 -7,8 -12,10 7,2 12,6 16,11 4,5 6,11 6,18 0,6 -1,11 -4,16 -2,5 -6,9 -10,12 -4,3 -10,5 -16,6 -4,0 -14,1 -29,1l-41 0 0 -119zm24 19l0 28 16 0c9,0 15,0 18,-1 4,0 7,-1 9,-4 3,-2 4,-5 4,-9 0,-4 -1,-7 -3,-9 -2,-2 -5,-4 -9,-4 -3,-1 -10,-1 -21,-1l-14 0zm0 48l0 32 23 0c8,0 14,-1 16,-1 4,-1 7,-2 9,-5 2,-2 3,-6 3,-10 0,-4 -1,-7 -2,-9 -2,-3 -5,-4 -8,-6 -3,-1 -10,-1 -21,-1l-20 0zm204 52l-26 0 -10 -27 -48 0 -10 27 -26 0 47 -119 25 0 48 119zm-44 -47l-17 -45 -16 45 33 0zm57 47l0 -119 23 0 49 79 0 -79 23 0 0 119 -24 0 -49 -79 0 79 -22 0zm27 -130l-11 0c0,-1 0,-2 0,-3 0,-6 1,-10 4,-13 3,-3 6,-5 11,-5 2,0 4,0 5,1 2,0 5,1 9,3 4,2 8,3 10,3 2,0 3,0 5,-1 1,-2 1,-3 2,-6l10 0c0,7 -1,13 -4,16 -2,3 -6,5 -10,5 -2,0 -4,-1 -6,-1 -1,0 -4,-1 -9,-3 -5,-2 -9,-3 -11,-3 -2,0 -3,0 -4,1 -1,1 -1,3 -1,6zm88 71c0,-12 2,-22 6,-31 2,-6 6,-11 11,-16 4,-5 10,-9 15,-11 8,-3 16,-5 26,-5 18,0 32,6 42,17 11,11 16,26 16,45 0,20 -5,35 -16,46 -10,11 -24,16 -42,16 -17,0 -32,-5 -42,-16 -11,-11 -16,-26 -16,-45zm25 -1c0,14 3,24 9,31 7,7 15,10 24,10 10,0 18,-3 24,-10 6,-7 9,-17 9,-31 0,-14 -3,-24 -9,-31 -6,-7 -14,-10 -24,-10 -10,0 -18,3 -24,10 -6,7 -9,17 -9,31zm156 60l0 -119 24 0 0 47 47 0 0 -47 24 0 0 119 -24 0 0 -52 -47 0 0 52 -24 0zm115 -59c0,-12 2,-22 6,-31 3,-6 6,-11 11,-16 5,-5 10,-9 15,-11 8,-3 17,-5 26,-5 18,0 32,6 42,17 11,11 16,26 16,45 0,20 -5,35 -15,46 -11,11 -25,16 -42,16 -18,0 -32,-5 -43,-16 -10,-11 -16,-26 -16,-45zm25 -1c0,14 3,24 10,31 6,7 14,10 24,10 9,0 17,-3 23,-10 6,-7 9,-17 9,-31 0,-14 -3,-24 -9,-31 -6,-7 -14,-10 -23,-10 -10,0 -18,3 -25,10 -6,7 -9,17 -9,31zm110 60l0 -119 36 0 21 81 22 -81 36 0 0 119 -23 0 0 -94 -23 94 -23 0 -24 -94 0 94 -22 0zm139 -119l48 0c9,0 16,0 21,1 4,0 9,2 12,5 4,2 7,5 9,10 3,4 4,8 4,13 0,6 -1,11 -4,16 -3,4 -7,8 -13,10 8,2 13,6 17,11 4,5 6,11 6,18 0,6 -1,11 -4,16 -2,5 -6,9 -10,12 -5,3 -10,5 -16,6 -4,0 -14,1 -29,1l-41 0 0 -119zm24 19l0 28 16 0c9,0 15,0 17,-1 4,0 8,-1 10,-4 2,-2 4,-5 4,-9 0,-4 -1,-7 -3,-9 -2,-2 -5,-4 -9,-4 -3,-1 -10,-1 -21,-1l-14 0zm0 48l0 32 22 0c9,0 15,-1 17,-1 4,-1 6,-2 9,-5 2,-2 3,-6 3,-10 0,-4 -1,-7 -2,-9 -2,-3 -5,-4 -8,-6 -3,-1 -10,-1 -21,-1l-20 0zm96 52l0 -119 51 0c13,0 22,1 28,3 6,2 10,6 14,11 3,6 5,12 5,19 0,9 -3,16 -8,22 -5,6 -13,10 -23,11 5,3 9,7 12,10 4,4 8,10 14,20l15 23 -29 0 -17 -26c-7,-9 -11,-15 -13,-18 -2,-2 -5,-4 -7,-5 -3,-1 -7,-1 -13,-1l-5 0 0 50 -24 0zm24 -69l18 0c12,0 19,0 22,-1 3,-1 5,-3 7,-6 1,-2 2,-5 2,-8 0,-5 -1,-8 -3,-10 -2,-3 -5,-4 -9,-5 -2,0 -8,0 -18,0l-19 0 0 30zm97 69l0 -119 88 0 0 20 -64 0 0 26 60 0 0 20 -60 0 0 33 66 0 0 20 -90 0zm105 -39l23 -2c1,8 4,13 9,17 4,4 10,6 17,6 8,0 14,-2 17,-5 4,-4 6,-7 6,-12 0,-3 0,-5 -2,-7 -2,-2 -5,-4 -9,-5 -3,-1 -9,-3 -19,-5 -13,-4 -22,-7 -27,-12 -7,-7 -11,-15 -11,-24 0,-6 2,-12 5,-17 4,-6 9,-10 15,-12 6,-3 14,-5 23,-5 15,0 27,4 34,10 8,7 12,16 12,27l-24 1c-1,-6 -3,-11 -7,-14 -3,-2 -8,-4 -15,-4 -7,0 -12,2 -16,5 -3,2 -4,4 -4,7 0,3 1,5 4,7 3,3 10,6 22,8 11,3 20,6 26,9 5,3 10,7 13,12 3,5 5,12 5,19 0,7 -2,13 -6,19 -4,6 -9,11 -16,14 -7,3 -16,4 -26,4 -15,0 -27,-3 -35,-10 -8,-7 -13,-18 -14,-31z"/>
  <path class="fil3" d="M619 4492l48 0c10,0 17,1 21,1 5,1 9,3 13,5 3,3 6,6 9,10 2,4 3,9 3,14 0,6 -1,11 -4,16 -3,4 -7,8 -12,10 7,2 13,6 16,11 4,5 6,11 6,18 0,5 -1,11 -3,16 -3,5 -6,9 -11,12 -4,3 -10,5 -16,6 -4,0 -14,1 -29,1l-41 0 0 -120zm24 20l0 28 16 0c10,0 15,-1 18,-1 4,0 7,-2 9,-4 3,-2 4,-5 4,-9 0,-4 -1,-7 -3,-9 -2,-3 -5,-4 -9,-4 -3,-1 -9,-1 -21,-1l-14 0zm0 47l0 32 23 0c8,0 14,0 16,0 4,-1 7,-3 9,-5 2,-3 3,-6 3,-10 0,-4 0,-7 -2,-9 -2,-3 -4,-5 -8,-6 -3,-1 -10,-2 -21,-2l-20 0zm204 53l-26 0 -10 -28 -48 0 -10 28 -25 0 46 -120 25 0 48 120zm-44 -48l-17 -44 -16 44 33 0zm57 48l0 -120 23 0 50 80 0 -80 22 0 0 120 -24 0 -49 -79 0 79 -22 0zm27 -130l-11 0c0,-2 0,-3 0,-3 0,-6 2,-10 4,-13 3,-4 7,-5 11,-5 2,0 4,0 5,1 2,0 5,1 9,3 5,2 8,3 10,3 2,0 4,-1 5,-2 1,-1 2,-3 2,-5l11 0c-1,7 -2,12 -5,16 -2,3 -6,4 -10,4 -2,0 -4,0 -5,0 -2,0 -5,-2 -10,-4 -5,-2 -8,-3 -11,-3 -1,0 -3,1 -4,2 -1,1 -1,3 -1,6zm88 71c0,-12 2,-23 6,-31 3,-6 6,-12 11,-16 5,-5 10,-9 15,-11 8,-3 16,-5 26,-5 18,0 32,6 42,17 11,10 16,26 16,45 0,19 -5,35 -16,45 -10,11 -24,17 -42,17 -17,0 -31,-6 -42,-16 -10,-11 -16,-26 -16,-45zm25 -1c0,13 3,24 10,31 6,7 14,10 23,10 10,0 18,-3 24,-10 6,-7 9,-18 9,-31 0,-14 -3,-24 -9,-31 -6,-7 -14,-10 -24,-10 -10,0 -18,3 -24,10 -6,7 -9,17 -9,31zm156 60l0 -120 36 0 22 82 21 -82 36 0 0 120 -22 0 0 -94 -24 94 -23 0 -24 -94 0 94 -22 0zm139 -120l24 0 0 65c0,10 1,17 1,20 1,5 4,9 7,12 4,3 10,4 16,4 7,0 12,-1 16,-4 3,-3 5,-6 6,-10 0,-4 1,-11 1,-21l0 -66 24 0 0 63c0,14 -1,25 -2,30 -1,6 -4,11 -7,15 -4,5 -8,8 -14,10 -6,3 -14,4 -23,4 -11,0 -20,-2 -26,-4 -6,-3 -10,-6 -14,-10 -3,-5 -5,-9 -6,-14 -2,-7 -3,-17 -3,-30l0 -64zm163 0l25 0 0 76c0,10 -1,17 -3,23 -2,7 -7,12 -13,16 -6,5 -14,7 -24,7 -12,0 -21,-3 -27,-10 -7,-7 -10,-16 -10,-29l23 -3c0,7 1,12 3,15 3,4 6,6 12,6 5,0 9,-1 11,-4 2,-4 3,-10 3,-20l0 -77zm50 120l0 -120 89 0 0 20 -65 0 0 27 60 0 0 20 -60 0 0 32 67 0 0 21 -91 0zm111 0l0 -120 51 0c13,0 22,1 28,4 6,2 10,5 14,11 3,5 5,12 5,19 0,9 -3,16 -8,22 -5,6 -13,9 -23,11 5,3 9,6 12,10 4,4 8,10 14,19l15 24 -29 0 -17 -26c-7,-10 -11,-16 -13,-18 -2,-2 -5,-4 -7,-5 -3,-1 -7,-1 -13,-1l-4 0 0 50 -25 0zm25 -69l17 0c12,0 19,-1 22,-2 3,-1 5,-2 7,-5 1,-2 2,-5 2,-9 0,-4 -1,-7 -3,-9 -2,-3 -5,-4 -9,-5 -2,0 -8,-1 -18,-1l-18 0 0 31zm96 69l0 -120 88 0 0 20 -64 0 0 27 60 0 0 20 -60 0 0 32 66 0 0 21 -90 0zm105 -39l23 -2c1,7 4,13 9,17 4,4 10,5 17,5 8,0 14,-1 18,-4 3,-4 5,-8 5,-12 0,-3 0,-5 -2,-7 -2,-2 -5,-4 -9,-5 -3,-1 -9,-3 -19,-6 -13,-3 -22,-7 -27,-11 -7,-7 -11,-15 -11,-24 0,-7 2,-12 5,-18 4,-5 9,-9 15,-12 7,-2 14,-4 23,-4 15,0 27,3 34,10 8,7 12,16 12,27l-24 0c-1,-6 -3,-10 -7,-13 -3,-3 -8,-4 -15,-4 -7,0 -12,2 -16,4 -3,2 -4,5 -4,8 0,3 1,5 4,7 3,3 10,5 22,8 11,3 20,6 26,9 5,3 10,7 13,12 3,5 5,11 5,19 0,7 -2,13 -6,19 -4,6 -9,11 -16,13 -7,3 -16,5 -26,5 -15,0 -27,-4 -35,-11 -8,-7 -13,-17 -14,-30z"/>
  <polygon class="fil1 str1" points="3633,4617 3757,4617 3757,3888 3633,3888 "/>
  <polygon class="fil1 str1" points="3753,4617 3877,4617 3877,3888 3753,3888 "/>
  <polygon class="fil1 str1" points="3883,4617 4007,4617 4007,3888 3883,3888 "/>
  <polygon class="fil1 str1" points="4013,4617 4476,4617 4476,3888 4013,3888 "/>
  <polygon class="fil1 str1" points="4473,4617 4597,4617 4597,3888 4473,3888 "/>
  <polygon class="fil1 str1" points="4593,4617 4717,4617 4717,3888 4593,3888 "/>
  <polygon class="fil1 str1" points="4713,4617 4837,4617 4837,3888 4713,3888 "/>
  <polygon class="fil1 str1" points="4833,4617 5296,4617 5296,3888 4833,3888 "/>
  <polygon class="fil1 str1" points="5293,4617 5417,4617 5417,3888 5293,3888 "/>
  <polygon class="fil1 str1" points="5413,4617 5537,4617 5537,3888 5413,3888 "/>
  <polygon class="fil1 str1" points="5533,4617 5657,4617 5657,3888 5533,3888 "/>
  <polygon class="fil1 str1" points="5653,4617 5777,4617 5777,3888 5653,3888 "/>
  <polygon class="fil1 str1" points="5773,4617 5897,4617 5897,3888 5773,3888 "/>
  <polygon class="fil1 str1" points="5893,4617 6017,4617 6017,3888 5893,3888 "/>
  <polygon class="fil1 str1" points="6017,4617 3633,4617 3633,4700 6017,4700 "/>
  <polygon class="fil1 str1" points="6017,3804 3633,3804 3633,3888 6017,3888 "/>
  <polygon class="fil1 str1" points="6465,4921 6017,4921 6017,3576 6465,3576 "/>
  <path class="fil5" d="M8240 5975l92 -239 35 0 97 239 -36 0 -28 -72 -100 0 -26 72 -34 0zm69 -98l81 0 -25 -66c-7,-20 -13,-37 -17,-50 -3,16 -7,31 -13,46l-26 70zm180 98l0 -239 106 0c21,0 38,2 49,7 11,4 20,12 26,22 7,11 10,23 10,36 0,17 -5,32 -16,43 -11,12 -28,19 -51,22 8,4 15,8 19,12 9,9 18,19 26,32l41 65 -39 0 -32 -50c-9,-14 -16,-25 -22,-33 -6,-7 -12,-13 -16,-16 -5,-3 -10,-5 -15,-6 -3,-1 -9,-1 -17,-1l-37 0 0 106 -32 0zm32 -133l68 0c14,0 26,-2 34,-5 8,-3 14,-8 18,-14 4,-7 6,-14 6,-22 0,-11 -4,-20 -12,-27 -8,-8 -21,-11 -38,-11l-76 0 0 79zm379 49l31 8c-6,26 -18,46 -35,60 -18,13 -39,20 -64,20 -25,0 -46,-5 -62,-16 -16,-10 -29,-25 -37,-45 -8,-20 -13,-41 -13,-64 0,-25 5,-47 15,-65 9,-19 23,-33 40,-42 18,-10 37,-15 58,-15 24,0 44,6 60,19 16,12 28,29 34,51l-31 7c-5,-17 -13,-30 -24,-38 -10,-8 -24,-12 -40,-12 -18,0 -33,5 -45,13 -13,9 -21,21 -26,36 -5,15 -8,30 -8,46 0,20 3,38 9,53 6,15 15,26 27,34 13,7 26,11 41,11 18,0 32,-5 45,-15 12,-11 20,-26 25,-46zm61 -32c0,-40 10,-71 32,-93 21,-23 48,-34 82,-34 22,0 42,6 60,16 17,11 31,25 40,44 9,19 14,40 14,64 0,24 -5,46 -15,65 -10,19 -23,33 -41,43 -18,10 -38,15 -58,15 -23,0 -43,-5 -61,-16 -17,-11 -31,-26 -40,-45 -9,-18 -13,-38 -13,-59zm32 0c0,29 8,52 23,68 16,17 35,25 59,25 23,0 43,-8 58,-25 16,-17 23,-40 23,-71 0,-19 -3,-36 -10,-51 -6,-14 -16,-25 -28,-33 -13,-8 -27,-12 -43,-12 -22,0 -41,7 -58,23 -16,15 -24,41 -24,76zm226 39l30 -2c1,12 5,21 10,29 5,8 13,14 24,19 11,5 23,7 36,7 12,0 23,-2 32,-5 9,-4 16,-9 21,-15 4,-7 7,-13 7,-21 0,-7 -3,-14 -7,-19 -4,-6 -11,-10 -21,-14 -7,-3 -21,-7 -43,-12 -22,-5 -37,-10 -46,-15 -11,-6 -20,-13 -25,-22 -6,-9 -9,-19 -9,-30 0,-12 4,-23 10,-34 7,-10 17,-18 30,-24 14,-5 28,-8 44,-8 18,0 33,3 47,9 13,6 24,14 31,25 7,11 11,24 12,38l-30 2c-2,-15 -8,-26 -17,-34 -9,-8 -23,-12 -42,-12 -19,0 -33,4 -41,11 -9,7 -13,15 -13,25 0,9 3,16 9,21 6,6 22,12 47,17 26,6 44,11 53,16 14,6 24,14 31,24 7,10 10,21 10,34 0,12 -4,24 -11,35 -7,12 -18,20 -31,27 -14,6 -29,9 -46,9 -22,0 -40,-3 -54,-9 -15,-7 -26,-16 -35,-29 -8,-12 -12,-27 -13,-43z"/>
  <path class="fil5" d="M8350 2817l91 -239 35 0 97 239 -36 0 -27 -73 -101 0 -26 73 -33 0zm68 -98l82 0 -25 -66c-8,-20 -13,-37 -17,-50 -3,15 -8,31 -13,46l-27 70zm181 98l0 -239 106 0c21,0 37,2 48,7 11,4 20,11 27,22 6,11 10,23 10,36 0,17 -6,31 -17,43 -11,12 -28,19 -51,22 9,4 15,8 20,12 9,8 17,19 26,32l41 65 -40 0 -31 -50c-9,-14 -17,-25 -23,-33 -6,-7 -11,-13 -16,-16 -5,-3 -9,-5 -14,-6 -4,-1 -10,-1 -18,-1l-36 0 0 106 -32 0zm32 -134l67 0c15,0 26,-1 34,-4 8,-3 14,-8 19,-14 4,-7 6,-14 6,-22 0,-11 -4,-20 -12,-28 -8,-7 -21,-11 -39,-11l-75 0 0 79zm378 50l32 8c-7,26 -19,46 -36,59 -17,14 -38,21 -63,21 -26,0 -47,-5 -63,-16 -16,-10 -28,-26 -36,-45 -9,-20 -13,-42 -13,-64 0,-25 5,-47 14,-65 10,-19 23,-33 41,-42 17,-10 37,-15 58,-15 23,0 43,6 60,18 16,13 27,30 34,52l-31 7c-6,-17 -14,-30 -24,-38 -11,-8 -24,-12 -40,-12 -18,0 -34,5 -46,13 -12,9 -21,21 -26,36 -5,15 -7,30 -7,46 0,20 3,38 9,53 5,15 15,26 27,34 12,7 26,11 40,11 18,0 33,-5 45,-15 12,-11 21,-26 25,-46zm61 -32c0,-40 11,-71 32,-93 21,-23 49,-34 82,-34 23,0 42,5 60,16 18,10 31,25 41,44 9,19 13,40 13,64 0,24 -4,46 -14,65 -10,19 -24,33 -42,43 -18,10 -37,15 -58,15 -22,0 -42,-6 -60,-16 -18,-11 -31,-26 -40,-45 -9,-19 -14,-38 -14,-59zm33 0c0,29 8,52 23,68 15,17 35,25 58,25 24,0 43,-9 59,-25 15,-17 23,-41 23,-71 0,-20 -3,-37 -10,-51 -7,-14 -16,-26 -29,-34 -12,-8 -27,-12 -42,-12 -23,0 -42,8 -58,23 -16,16 -24,41 -24,77zm226 39l29 -3c2,12 5,22 10,30 5,8 13,14 24,19 11,4 23,7 37,7 12,0 23,-2 32,-6 9,-3 16,-8 20,-14 5,-7 7,-14 7,-21 0,-7 -2,-14 -6,-19 -5,-6 -12,-11 -22,-14 -6,-3 -20,-7 -42,-12 -22,-5 -38,-10 -46,-15 -12,-6 -20,-13 -26,-22 -5,-9 -8,-19 -8,-30 0,-12 3,-23 10,-34 7,-10 17,-18 30,-24 13,-5 28,-8 44,-8 17,0 33,3 47,9 13,5 23,14 31,25 7,11 11,23 11,37l-30 3c-2,-15 -7,-27 -16,-34 -10,-8 -24,-12 -42,-12 -19,0 -33,4 -42,11 -9,7 -13,15 -13,25 0,9 3,16 9,21 6,6 22,11 48,17 26,6 43,11 53,15 14,7 24,15 31,25 6,9 9,21 9,33 0,13 -3,25 -10,36 -8,12 -18,20 -32,26 -13,7 -29,10 -46,10 -21,0 -39,-3 -54,-10 -14,-6 -26,-15 -34,-28 -8,-13 -13,-27 -13,-43z"/>
  <polygon class="fil1" points="0,12 11010,12 11010,8512 0,8512 "/>
 </g>
</svg>
