<?xml version="1.0" encoding="UTF-8"?>
<!DOCTYPE svg PUBLIC "-//W3C//DTD SVG 1.0//EN" "http://www.w3.org/TR/2001/REC-SVG-20010904/DTD/svg10.dtd">
<!-- Creator: CorelDRAW X7 -->
<svg xmlns="http://www.w3.org/2000/svg" xml:space="preserve" width="11in" height="8.5in" version="1.0" style="shape-rendering:geometricPrecision; text-rendering:geometricPrecision; image-rendering:optimizeQuality; fill-rule:evenodd; clip-rule:evenodd"
viewBox="0 0 11000 8500"
 xmlns:xlink="http://www.w3.org/1999/xlink">
 <defs>
  <style type="text/css">
   <![CDATA[
    .str1 {stroke:#FEFEFE;stroke-width:6.94488}
    .str0 {stroke:#373435;stroke-width:6.94488}
    .fil1 {fill:none}
    .fil2 {fill:#3E4095}
    .fil3 {fill:#FEFEFE;fill-rule:nonzero}
    .fil0 {fill:#373435;fill-rule:nonzero}
   ]]>
  </style>
 </defs>
 <g id="Capa_x0020_1">
  <metadata id="CorelCorpID_0Corel-Layer"/>
  <path class="fil0" d="M4955 8146l0 -239 90 0c16,0 28,1 36,3 12,2 22,5 30,11 8,5 14,13 19,23 5,10 7,20 7,32 0,20 -6,38 -19,52 -13,14 -36,21 -70,21l-61 0 0 97 -32 0zm32 -125l61 0c21,0 35,-4 44,-12 8,-7 13,-18 13,-32 0,-10 -3,-18 -8,-25 -5,-8 -12,-12 -20,-15 -5,-1 -15,-2 -29,-2l-61 0 0 86zm189 125l0 -239 32 0 0 211 117 0 0 28 -149 0zm160 0l92 -239 35 0 97 239 -36 0 -28 -72 -100 0 -26 72 -34 0zm69 -98l81 0 -24 -66c-8,-20 -14,-37 -18,-50 -3,16 -7,31 -13,46l-26 70zm180 98l0 -239 32 0 125 188 0 -188 31 0 0 239 -33 0 -125 -187 0 187 -30 0zm301 0l0 -211 -78 0 0 -28 189 0 0 28 -79 0 0 211 -32 0zm92 0l92 -239 35 0 97 239 -36 0 -28 -72 -100 0 -26 72 -34 0zm69 -98l81 0 -24 -66c-8,-20 -14,-37 -18,-50 -3,16 -7,31 -13,46l-26 70zm210 98l91 -239 35 0 97 239 -36 0 -28 -72 -100 0 -26 72 -33 0zm68 -98l82 0 -25 -66c-8,-20 -13,-37 -17,-50 -4,16 -8,31 -14,46l-26 70zm179 98l0 -239 31 0 0 211 118 0 0 28 -149 0zm222 0l0 -211 -78 0 0 -28 189 0 0 28 -79 0 0 211 -32 0zm92 0l92 -239 35 0 97 239 -36 0 -28 -72 -100 0 -26 72 -34 0zm69 -98l81 0 -24 -66c-8,-20 -14,-37 -18,-50 -3,16 -7,31 -13,46l-26 70z"/>
  <polygon class="fil1 str0" points="7808,475 7807,1776 7807,2632 7923,6528 7923,7708 4481,7708 3764,7708 3764,6528 4481,6528 4481,5367 5398,5367 6009,2632 6141,1776 6612,1776 6612,475 "/>
  <rect class="fil1 str0" transform="matrix(4.44207E-014 -1.67723 1.67723 4.44207E-014 6612.24 2632.27)" width="510" height="712"/>
  <rect class="fil1 str0" transform="matrix(4.44207E-014 -1.67723 1.69895 4.4996E-014 6612.24 2204.26)" width="255" height="703"/>
  <rect class="fil1 str0" transform="matrix(4.44207E-014 -1.67723 1.67723 4.44207E-014 6612.24 2632.28)" width="255" height="712"/>
  <line class="fil1 str0" x1="6612" y1="2632" x2="6009" y2= "2632" />
  <rect class="fil1 str0" transform="matrix(4.44207E-014 -1.67723 1.70108 4.50524E-014 6612.24 1776.24)" width="776" height="703"/>
  <polygon class="fil1 str0" points="3764,7708 3764,6528 4484,6528 4484,5367 5398,5367 5398,6528 7923,6528 7923,7708 "/>
  <ellipse class="fil1 str0" transform="matrix(3.731E-014 -1.40875 1.40875 3.731E-014 6378.81 1544.16)" rx="165" ry="166"/>
  <line class="fil1 str0" x1="6612" y1="1544" x2="6145" y2= "1544" />
  <line class="fil1 str0" x1="6379" y1="1776" x2="6379" y2= "1312" />
  <line class="fil1 str0" x1="6536" y1="1373" x2="6220" y2= "1714" />
  <line class="fil1 str0" x1="6548" y1="1704" x2="6208" y2= "1386" />
  <path class="fil0" d="M5320 7156l0 -28 101 0 0 88c-16,12 -32,22 -48,28 -17,6 -34,9 -51,9 -23,0 -45,-5 -64,-15 -19,-10 -33,-24 -43,-43 -10,-19 -15,-40 -15,-64 0,-23 5,-45 15,-65 10,-20 23,-35 42,-45 18,-9 39,-14 63,-14 17,0 33,2 46,8 14,6 25,13 33,23 8,10 14,23 18,40l-28 7c-4,-12 -8,-21 -14,-28 -5,-7 -12,-13 -22,-17 -10,-4 -21,-6 -33,-6 -15,0 -27,2 -38,6 -10,5 -18,10 -25,18 -6,7 -11,15 -15,23 -6,15 -9,31 -9,48 0,22 4,40 11,54 7,14 18,25 32,32 14,7 29,10 44,10 14,0 27,-2 40,-8 13,-5 23,-11 30,-17l0 -44 -70 0zm153 93l0 -238 32 0 0 238 -32 0zm86 0l0 -238 48 0 56 169c5,15 9,27 12,35 2,-9 7,-21 12,-38l58 -166 42 0 0 238 -30 0 0 -199 -70 199 -28 0 -69 -203 0 203 -31 0zm278 0l0 -238 33 0 125 187 0 -187 30 0 0 238 -32 0 -125 -187 0 187 -31 0zm215 0l92 -238 35 0 97 238 -36 0 -28 -72 -100 0 -26 72 -34 0zm69 -98l81 0 -25 -66c-7,-20 -13,-37 -17,-50 -3,16 -7,31 -13,46l-26 70zm170 22l29 -3c2,12 5,22 10,30 5,7 13,13 24,18 11,5 23,7 37,7 12,0 22,-1 32,-5 9,-4 16,-9 20,-15 5,-6 7,-13 7,-20 0,-8 -2,-14 -7,-20 -4,-5 -11,-10 -21,-14 -7,-2 -21,-6 -43,-12 -22,-5 -37,-10 -46,-14 -11,-6 -20,-14 -25,-23 -6,-9 -8,-18 -8,-29 0,-13 3,-24 10,-34 7,-11 17,-19 30,-24 13,-6 27,-8 44,-8 17,0 33,3 46,8 14,6 24,14 31,25 8,11 12,24 12,38l-30 2c-2,-15 -7,-26 -17,-34 -9,-7 -23,-11 -41,-11 -19,0 -33,3 -42,10 -9,7 -13,16 -13,26 0,8 3,15 9,21 6,5 22,11 48,17 25,6 43,11 53,15 13,6 24,14 30,24 7,10 10,21 10,34 0,13 -3,25 -11,36 -7,11 -17,20 -31,26 -14,6 -29,9 -46,9 -21,0 -40,-3 -54,-9 -15,-6 -26,-16 -34,-28 -9,-13 -13,-27 -13,-43zm238 76l0 -238 31 0 0 238 -31 0zm77 -116c0,-39 11,-70 32,-93 21,-22 49,-33 82,-33 23,0 42,5 60,15 18,11 31,26 41,44 9,19 13,41 13,64 0,25 -4,46 -14,65 -10,19 -24,34 -42,44 -18,9 -37,14 -58,14 -22,0 -42,-5 -60,-16 -18,-11 -31,-26 -40,-44 -9,-19 -14,-39 -14,-60zm33 1c0,28 8,51 23,68 15,16 35,24 58,24 24,0 43,-8 59,-25 15,-16 23,-40 23,-71 0,-19 -3,-36 -10,-50 -7,-15 -16,-26 -29,-34 -12,-8 -27,-12 -42,-12 -23,0 -42,8 -58,23 -16,15 -24,41 -24,77z"/>
  <polygon class="fil2 str0" points="7923,6537 5398,6528 5398,5426 6009,2632 7807,2632 "/>
  <path class="fil3" d="M6425 4378l30 -3c1,12 5,22 10,30 5,8 13,14 24,19 11,4 23,7 36,7 12,0 23,-2 32,-6 9,-3 16,-8 21,-15 4,-6 7,-13 7,-20 0,-7 -3,-14 -7,-20 -4,-5 -11,-10 -21,-14 -7,-2 -21,-6 -43,-11 -22,-6 -37,-10 -46,-15 -11,-6 -20,-14 -25,-22 -6,-9 -9,-19 -9,-30 0,-12 4,-24 11,-34 6,-10 16,-18 29,-24 14,-5 28,-8 44,-8 18,0 34,3 47,9 14,5 24,14 31,25 7,11 11,23 12,37l-30 3c-2,-15 -8,-27 -17,-34 -9,-8 -23,-12 -42,-12 -19,0 -33,3 -41,10 -9,7 -13,16 -13,26 0,8 3,15 9,21 6,5 22,11 47,17 26,6 44,11 53,15 14,7 24,15 31,24 7,10 10,22 10,34 0,13 -4,25 -11,36 -7,11 -18,20 -31,26 -14,7 -29,10 -46,10 -22,0 -40,-4 -54,-10 -15,-6 -26,-16 -35,-28 -8,-13 -12,-27 -13,-43zm207 77l91 -239 35 0 97 239 -36 0 -27 -73 -101 0 -26 73 -33 0zm68 -98l82 0 -25 -67c-8,-20 -13,-36 -17,-49 -4,15 -8,30 -13,46l-27 70zm179 98l0 -239 32 0 0 211 117 0 0 28 -149 0zm160 0l92 -239 35 0 97 239 -36 0 -28 -73 -100 0 -26 73 -34 0zm69 -98l81 0 -24 -67c-8,-20 -14,-36 -18,-49 -3,15 -7,30 -13,46l-26 70zm-478 470l0 -239 82 0c19,0 33,1 43,4 14,3 25,9 35,17 13,11 22,24 28,41 6,16 10,35 10,56 0,19 -3,35 -7,49 -4,14 -9,25 -16,34 -7,10 -14,17 -22,22 -8,5 -17,9 -28,12 -11,3 -24,4 -39,4l-86 0zm32 -28l51 0c16,0 28,-1 37,-4 9,-3 16,-7 21,-13 8,-7 13,-17 18,-30 4,-13 6,-28 6,-46 0,-25 -4,-44 -12,-58 -9,-13 -18,-22 -30,-27 -9,-3 -22,-5 -41,-5l-50 0 0 183zm210 28l0 -239 172 0 0 28 -141 0 0 74 132 0 0 28 -132 0 0 81 147 0 0 28 -178 0zm-566 372l0 -238 82 0c19,0 33,1 43,3 13,3 25,9 35,17 12,11 22,24 28,41 6,17 9,36 9,57 0,18 -2,34 -6,48 -4,14 -10,26 -16,35 -7,9 -14,16 -22,21 -8,6 -17,10 -28,12 -12,3 -24,4 -39,4l-86 0zm32 -28l51 0c15,0 28,-1 37,-4 9,-3 16,-7 21,-12 7,-8 13,-18 17,-31 5,-12 7,-28 7,-46 0,-25 -4,-44 -13,-57 -8,-14 -18,-23 -29,-27 -9,-4 -22,-5 -41,-5l-50 0 0 182zm365 -210l32 0 0 138c0,24 -3,43 -8,57 -6,14 -16,25 -30,34 -14,9 -32,13 -55,13 -23,0 -41,-3 -55,-11 -14,-8 -24,-19 -30,-34 -7,-14 -10,-34 -10,-59l0 -138 32 0 0 138c0,20 2,36 6,45 4,10 10,18 20,23 9,5 20,8 34,8 23,0 40,-5 49,-16 10,-10 15,-30 15,-60l0 -138zm85 238l0 -238 172 0 0 28 -140 0 0 73 131 0 0 28 -131 0 0 81 146 0 0 28 -178 0zm220 0l0 -238 32 0 0 210 117 0 0 28 -149 0zm161 0l92 -238 34 0 97 238 -35 0 -28 -72 -101 0 -25 72 -34 0zm69 -98l81 0 -25 -66c-7,-20 -13,-36 -17,-50 -3,16 -8,31 -13,46l-26 70z"/>
  <polygon class="fil1 str0" points="4481,5367 5398,5367 5500,4911 4934,4912 4934,4391 5268,4391 5268,4130 4179,4128 4179,4391 4481,4391 4481,4912 "/>
  <rect class="fil1 str0" x="5111" y="4912" width="57.2677" height="455.059"/>
  <rect class="fil1 str0" x="5051" y="4912" width="57.2677" height="455.059"/>
  <rect class="fil1 str0" x="4991" y="4912" width="57.2677" height="455.059"/>
  <rect class="fil1 str0" x="4931" y="4912" width="57.2677" height="455.059"/>
  <rect class="fil1 str0" transform="matrix(2.62297E-014 -1.08581 0.990379 2.87571E-014 4480.76 4713.59)" width="57.2677" height="455.059"/>
  <rect class="fil1 str0" transform="matrix(2.62297E-014 -1.08581 0.990379 2.87571E-014 4480.76 4778.74)" width="57.2677" height="455.059"/>
  <rect class="fil1 str0" transform="matrix(2.62297E-014 -1.08581 0.990379 2.87571E-014 4480.76 4843.89)" width="57.2677" height="455.059"/>
  <rect class="fil1 str0" transform="matrix(2.62297E-014 -1.08581 0.990379 2.87571E-014 4480.76 4909.04)" width="57.2677" height="455.059"/>
  <rect class="fil1 str0" transform="matrix(2.62297E-014 -1.08581 0.990379 2.87571E-014 4480.76 4453)" width="57.2677" height="455.059"/>
  <rect class="fil1 str0" transform="matrix(2.62297E-014 -1.08581 0.990379 2.87571E-014 4480.76 4518.15)" width="57.2677" height="455.059"/>
  <rect class="fil1 str0" transform="matrix(2.62297E-014 -1.08581 0.990379 2.87571E-014 4480.76 4583.3)" width="57.2677" height="455.059"/>
  <rect class="fil1 str0" transform="matrix(2.62297E-014 -1.08581 0.990379 2.87571E-014 4480.76 4648.45)" width="57.2677" height="455.059"/>
  <rect class="fil1 str0" x="5111" y="4912" width="57.2677" height="455.059"/>
  <rect class="fil1 str0" x="5051" y="4912" width="57.2677" height="455.059"/>
  <rect class="fil1 str0" x="4991" y="4912" width="57.2677" height="455.059"/>
  <rect class="fil1 str0" x="4931" y="4912" width="57.2677" height="455.059"/>
  <rect class="fil1 str0" transform="matrix(2.62297E-014 -1.08581 0.990379 2.87571E-014 4480.76 4909.04)" width="57.2677" height="455.059"/>
  <rect class="fil1 str0" x="5225" y="4130" width="30.9292" height="260.575"/>
  <rect class="fil1 str0" x="5193" y="4130" width="30.9292" height="260.575"/>
  <rect class="fil1 str0" x="5161" y="4130" width="30.9292" height="260.575"/>
  <rect class="fil1 str0" x="5128" y="4130" width="30.9292" height="260.575"/>
  <rect class="fil1 str0" x="5225" y="4130" width="30.9292" height="260.575"/>
  <rect class="fil1 str0" x="5193" y="4130" width="30.9292" height="260.575"/>
  <rect class="fil1 str0" x="5161" y="4130" width="30.9292" height="260.575"/>
  <rect class="fil1 str0" x="5128" y="4130" width="30.9292" height="260.575"/>
  <rect class="fil1 str0" x="5095" y="4130" width="30.9292" height="260.575"/>
  <rect class="fil1 str0" x="5063" y="4130" width="30.9292" height="260.575"/>
  <rect class="fil1 str0" x="5031" y="4130" width="30.9292" height="260.575"/>
  <rect class="fil1 str0" x="4998" y="4130" width="30.9292" height="260.575"/>
  <rect class="fil1 str0" x="5095" y="4130" width="30.9292" height="260.575"/>
  <rect class="fil1 str0" x="5063" y="4130" width="30.9292" height="260.575"/>
  <rect class="fil1 str0" x="5031" y="4130" width="30.9292" height="260.575"/>
  <rect class="fil1 str0" x="4998" y="4130" width="30.9292" height="260.575"/>
  <rect class="fil1 str0" x="4445" y="4130" width="30.9292" height="260.575"/>
  <rect class="fil1 str0" x="4413" y="4130" width="30.9292" height="260.575"/>
  <rect class="fil1 str0" x="4381" y="4130" width="30.9292" height="260.575"/>
  <rect class="fil1 str0" x="4348" y="4130" width="30.9292" height="260.575"/>
  <rect class="fil1 str0" x="4445" y="4130" width="30.9292" height="260.575"/>
  <rect class="fil1 str0" x="4413" y="4130" width="30.9292" height="260.575"/>
  <rect class="fil1 str0" x="4381" y="4130" width="30.9292" height="260.575"/>
  <rect class="fil1 str0" x="4348" y="4130" width="30.9292" height="260.575"/>
  <rect class="fil1 str0" x="4971" y="4130" width="30.9292" height="260.575"/>
  <rect class="fil1 str0" x="4938" y="4130" width="30.9292" height="260.575"/>
  <rect class="fil1 str0" x="4971" y="4130" width="30.9292" height="260.575"/>
  <rect class="fil1 str0" x="4938" y="4130" width="30.9292" height="260.575"/>
  <rect class="fil1 str0" x="4315" y="4130" width="30.9292" height="260.575"/>
  <rect class="fil1 str0" x="4283" y="4130" width="30.9292" height="260.575"/>
  <rect class="fil1 str0" x="4251" y="4130" width="30.9292" height="260.575"/>
  <rect class="fil1 str0" x="4218" y="4130" width="30.9292" height="260.575"/>
  <rect class="fil1 str0" x="4315" y="4130" width="30.9292" height="260.575"/>
  <rect class="fil1 str0" x="4283" y="4130" width="30.9292" height="260.575"/>
  <rect class="fil1 str0" x="4251" y="4130" width="30.9292" height="260.575"/>
  <rect class="fil1 str0" x="4218" y="4130" width="30.9292" height="260.575"/>
  <path class="fil0" d="M6891 2418l0 -112 43 0c8,0 15,1 20,3 5,3 10,6 12,11 3,5 5,9 5,15 0,4 -1,9 -4,13 -3,4 -7,8 -12,10 7,2 12,6 16,11 4,4 5,10 5,17 0,5 -1,10 -3,14 -2,5 -5,8 -8,11 -3,2 -8,4 -13,5 -4,2 -11,2 -18,2l-43 0zm15 -65l25 0c6,0 11,0 14,-1 4,-1 6,-3 8,-6 2,-2 3,-6 3,-10 0,-3 -1,-7 -2,-9 -2,-3 -5,-5 -8,-6 -3,-1 -9,-2 -17,-2l-23 0 0 34zm0 52l28 0c5,0 9,0 11,0 3,-1 6,-2 8,-4 2,-1 4,-3 6,-6 1,-3 2,-6 2,-9 0,-5 -1,-8 -3,-11 -2,-3 -5,-6 -9,-7 -4,-1 -9,-2 -17,-2l-26 0 0 39zm78 13l44 -112 16 0 46 112 -17 0 -13 -34 -48 0 -12 34 -16 0zm33 -46l38 0 -12 -31c-3,-9 -6,-17 -8,-23 -1,7 -3,14 -6,21l-12 33zm84 46l0 -112 16 0 59 88 0 -88 14 0 0 112 -15 0 -59 -88 0 88 -15 0zm21 -119c0,-5 2,-9 5,-12 2,-4 6,-5 11,-5 3,0 7,1 13,4 3,1 5,2 7,2 1,0 3,0 4,-1 0,-1 1,-3 1,-5l10 0c0,5 -1,10 -4,13 -3,3 -6,4 -11,4 -3,0 -7,-1 -12,-4 -4,-2 -6,-3 -8,-3 -2,0 -3,1 -4,2 -1,1 -2,3 -2,5l-10 0zm88 65c0,-19 5,-34 15,-44 10,-11 23,-16 39,-16 10,0 20,3 28,7 8,5 15,12 19,21 5,9 7,19 7,30 0,12 -3,22 -7,31 -5,9 -11,16 -20,20 -8,5 -17,7 -27,7 -11,0 -20,-2 -28,-8 -9,-5 -15,-12 -19,-20 -5,-9 -7,-19 -7,-28zm16 0c0,13 3,24 11,32 7,8 16,11 27,11 11,0 20,-3 28,-11 7,-8 10,-19 10,-34 0,-9 -1,-17 -4,-24 -3,-6 -8,-12 -14,-15 -6,-4 -12,-6 -20,-6 -10,0 -19,4 -27,11 -8,7 -11,19 -11,36zm154 54l0 -112 39 0c9,0 16,0 20,2 7,1 12,4 17,8 6,5 10,11 13,19 3,8 4,16 4,26 0,9 -1,17 -3,23 -2,7 -4,12 -7,17 -3,4 -7,7 -11,10 -3,2 -8,4 -13,5 -5,2 -11,2 -18,2l-41 0zm15 -13l24 0c8,0 14,-1 18,-2 4,-1 7,-3 10,-6 3,-3 6,-8 8,-14 2,-6 3,-13 3,-22 0,-12 -2,-21 -6,-27 -4,-6 -8,-10 -14,-13 -4,-1 -10,-2 -19,-2l-24 0 0 86zm99 13l0 -112 81 0 0 13 -66 0 0 35 62 0 0 13 -62 0 0 38 69 0 0 13 -84 0zm-645 176l0 -113 15 0 0 47 58 0 0 -47 15 0 0 113 -15 0 0 -53 -58 0 0 53 -15 0zm108 -55c0,-19 5,-33 15,-44 10,-10 23,-16 39,-16 11,0 20,3 28,8 9,5 15,12 19,20 5,9 7,19 7,31 0,11 -2,21 -7,30 -5,9 -11,16 -20,21 -8,4 -17,6 -27,6 -11,0 -20,-2 -28,-7 -9,-5 -15,-12 -19,-21 -5,-9 -7,-18 -7,-28zm16 0c0,14 3,24 11,32 7,8 16,12 27,12 11,0 20,-4 28,-12 7,-8 10,-19 10,-33 0,-10 -1,-18 -4,-24 -3,-7 -8,-12 -14,-16 -6,-4 -12,-6 -20,-6 -10,0 -19,4 -27,11 -8,7 -11,19 -11,36zm111 55l0 -113 22 0 26 80c3,7 5,13 6,16 1,-4 3,-10 6,-18l27 -78 20 0 0 113 -14 0 0 -94 -33 94 -14 0 -32 -96 0 96 -14 0zm130 0l0 -113 42 0c9,0 16,1 21,4 5,2 9,5 12,10 3,5 4,10 4,15 0,5 -1,9 -3,14 -3,4 -7,7 -12,10 7,2 12,5 15,10 4,5 6,10 6,17 0,5 -1,10 -3,15 -3,4 -5,8 -9,10 -3,3 -7,4 -12,6 -5,1 -11,2 -18,2l-43 0zm15 -66l24 0c7,0 12,0 14,-1 4,-1 7,-3 9,-5 2,-3 3,-6 3,-10 0,-4 -1,-7 -3,-10 -2,-3 -4,-5 -8,-6 -3,-1 -9,-2 -17,-2l-22 0 0 34zm0 52l28 0c5,0 8,0 10,0 3,-1 6,-2 9,-3 2,-2 4,-4 5,-6 2,-3 3,-6 3,-10 0,-4 -2,-8 -4,-11 -2,-3 -5,-5 -9,-6 -3,-2 -9,-2 -16,-2l-26 0 0 38zm91 14l0 -113 49 0c10,0 18,1 23,3 5,2 10,6 13,11 3,5 4,11 4,17 0,8 -2,15 -7,20 -5,5 -13,9 -24,10 4,2 7,4 9,6 4,4 8,9 12,15l19 31 -18 0 -15 -24c-4,-7 -8,-12 -11,-15 -2,-4 -5,-6 -7,-8 -2,-1 -5,-2 -7,-3 -2,0 -4,0 -8,0l-17 0 0 50 -15 0zm15 -63l31 0c7,0 13,-1 16,-2 4,-2 7,-4 9,-7 2,-3 3,-6 3,-10 0,-5 -2,-10 -6,-13 -4,-4 -10,-5 -18,-5l-35 0 0 37zm98 63l0 -113 81 0 0 13 -66 0 0 35 62 0 0 13 -62 0 0 38 69 0 0 14 -84 0zm99 -37l14 -1c1,6 3,11 5,14 2,4 6,7 11,9 5,2 11,3 18,3 5,0 10,-1 15,-2 4,-2 7,-4 9,-7 2,-3 3,-6 3,-10 0,-3 -1,-6 -3,-9 -2,-3 -5,-5 -10,-7 -3,-1 -9,-3 -20,-5 -10,-3 -17,-5 -21,-7 -6,-3 -10,-6 -12,-11 -3,-4 -4,-8 -4,-14 0,-5 1,-11 5,-16 3,-5 7,-8 14,-11 6,-2 13,-4 20,-4 9,0 16,2 22,4 7,3 12,7 15,12 3,5 5,11 5,18l-14 1c-1,-7 -3,-12 -8,-16 -4,-4 -11,-5 -19,-5 -9,0 -16,1 -20,4 -4,4 -6,8 -6,12 0,4 1,8 4,10 3,3 11,6 23,8 12,3 20,5 25,8 6,3 11,6 14,11 3,5 5,10 5,16 0,6 -2,11 -5,17 -4,5 -9,9 -15,12 -7,3 -14,4 -22,4 -10,0 -18,-1 -25,-4 -7,-3 -12,-7 -16,-13 -4,-6 -6,-13 -7,-21z"/>
  <path class="fil0" d="M6891 1968l0 -112 43 0c8,0 15,1 20,3 5,3 10,6 12,11 3,5 5,9 5,15 0,4 -1,9 -4,13 -3,4 -7,8 -12,10 7,2 12,6 16,11 4,4 5,10 5,17 0,5 -1,10 -3,14 -2,5 -5,8 -8,11 -3,2 -8,4 -13,5 -4,2 -11,2 -18,2l-43 0zm15 -65l25 0c6,0 11,0 14,-1 4,-1 6,-3 8,-6 2,-2 3,-6 3,-10 0,-3 -1,-7 -2,-9 -2,-3 -5,-5 -8,-6 -3,-1 -9,-2 -17,-2l-23 0 0 34zm0 52l28 0c5,0 9,0 11,0 3,-1 6,-2 8,-4 2,-1 4,-3 6,-6 1,-3 2,-6 2,-9 0,-5 -1,-8 -3,-11 -2,-3 -5,-6 -9,-7 -4,-1 -9,-2 -17,-2l-26 0 0 39zm78 13l44 -112 16 0 46 112 -17 0 -13 -34 -48 0 -12 34 -16 0zm33 -46l38 0 -12 -31c-3,-9 -6,-17 -8,-23 -1,7 -3,14 -6,21l-12 33zm84 46l0 -112 16 0 59 88 0 -88 14 0 0 112 -15 0 -59 -88 0 88 -15 0zm21 -119c0,-5 2,-9 5,-12 2,-4 6,-5 11,-5 3,0 7,1 13,4 3,1 5,2 7,2 1,0 3,0 4,-1 0,-1 1,-3 1,-5l10 0c0,5 -1,10 -4,13 -3,3 -6,4 -11,4 -3,0 -7,-1 -12,-4 -4,-2 -6,-3 -8,-3 -2,0 -3,1 -4,2 -1,1 -2,3 -2,5l-10 0zm88 65c0,-19 5,-34 15,-44 10,-11 23,-16 39,-16 10,0 20,3 28,7 8,5 15,12 19,21 5,9 7,19 7,30 0,12 -3,22 -7,31 -5,9 -11,16 -20,20 -8,5 -17,7 -27,7 -11,0 -20,-2 -28,-8 -9,-5 -15,-12 -19,-20 -5,-9 -7,-19 -7,-28zm16 0c0,13 3,24 11,32 7,8 16,11 27,11 11,0 20,-3 28,-11 7,-8 10,-19 10,-34 0,-9 -1,-17 -4,-24 -3,-6 -8,-12 -14,-15 -6,-4 -12,-6 -20,-6 -10,0 -19,4 -27,11 -8,7 -11,19 -11,36zm154 54l0 -112 39 0c9,0 16,0 20,2 7,1 12,4 17,8 6,5 10,11 13,19 3,8 4,16 4,26 0,9 -1,17 -3,23 -2,7 -4,12 -7,17 -3,4 -7,7 -11,10 -3,2 -8,4 -13,5 -5,2 -11,2 -18,2l-41 0zm15 -13l24 0c8,0 14,-1 18,-2 4,-1 7,-3 10,-6 3,-3 6,-8 8,-14 2,-6 3,-13 3,-22 0,-12 -2,-21 -6,-27 -4,-6 -8,-10 -14,-13 -4,-1 -10,-2 -19,-2l-24 0 0 86zm99 13l0 -112 81 0 0 13 -66 0 0 35 62 0 0 13 -62 0 0 38 69 0 0 13 -84 0zm-624 176l0 -113 22 0 27 80c2,7 4,13 5,16 2,-4 4,-10 6,-18l27 -78 20 0 0 113 -14 0 0 -94 -33 94 -13 0 -33 -96 0 96 -14 0zm205 -113l15 0 0 65c0,11 -2,20 -4,27 -3,7 -7,12 -14,16 -7,4 -15,6 -26,6 -11,0 -19,-1 -26,-5 -7,-4 -11,-9 -14,-16 -3,-7 -5,-16 -5,-28l0 -65 15 0 0 65c0,10 1,17 3,22 2,4 5,8 9,10 5,3 10,4 16,4 11,0 19,-2 24,-7 4,-5 7,-15 7,-29l0 -65zm32 81l13 -2c1,8 2,14 5,18 3,3 7,4 12,4 4,0 7,-1 9,-2 3,-2 5,-4 6,-7 1,-3 2,-8 2,-14l0 -78 15 0 0 77c0,9 -2,16 -4,22 -2,5 -6,9 -11,11 -5,3 -10,4 -17,4 -10,0 -17,-2 -23,-8 -5,-6 -7,-14 -7,-25zm86 32l0 -113 81 0 0 13 -66 0 0 35 62 0 0 13 -62 0 0 38 69 0 0 14 -84 0zm105 0l0 -113 50 0c10,0 17,1 22,3 6,2 10,6 13,11 3,5 5,11 5,17 0,8 -3,15 -8,20 -5,5 -13,9 -24,10 4,2 7,4 9,6 4,4 8,9 12,15l20 31 -19 0 -15 -24c-4,-7 -8,-12 -10,-15 -3,-4 -6,-6 -8,-8 -2,-1 -4,-2 -7,-3 -1,0 -4,0 -8,0l-17 0 0 50 -15 0zm15 -63l32 0c6,0 12,-1 16,-2 3,-2 6,-4 8,-7 2,-3 3,-6 3,-10 0,-5 -2,-10 -6,-13 -3,-4 -9,-5 -18,-5l-35 0 0 37zm98 63l0 -113 81 0 0 13 -66 0 0 35 62 0 0 13 -62 0 0 38 69 0 0 14 -84 0zm100 -37l14 -1c0,6 2,11 4,14 3,4 6,7 12,9 5,2 10,3 17,3 5,0 10,-1 15,-2 4,-2 7,-4 9,-7 3,-3 4,-6 4,-10 0,-3 -1,-6 -3,-9 -2,-3 -6,-5 -11,-7 -3,-1 -9,-3 -20,-5 -10,-3 -17,-5 -21,-7 -6,-3 -10,-6 -12,-11 -3,-4 -4,-8 -4,-14 0,-5 2,-11 5,-16 3,-5 8,-8 14,-11 6,-2 13,-4 20,-4 9,0 16,2 22,4 7,3 12,7 15,12 4,5 5,11 6,18l-15 1c0,-7 -3,-12 -7,-16 -5,-4 -11,-5 -20,-5 -9,0 -16,1 -20,4 -4,4 -6,8 -6,12 0,4 2,8 5,10 2,3 10,6 22,8 12,3 20,5 25,8 6,3 11,6 14,11 3,5 5,10 5,16 0,6 -2,11 -5,17 -4,5 -8,9 -15,12 -6,3 -14,4 -22,4 -10,0 -18,-1 -25,-4 -7,-3 -12,-7 -16,-13 -4,-6 -6,-13 -6,-21z"/>
  <path class="fil0" d="M6966 1164l19 5c-4,15 -11,27 -21,35 -10,8 -23,12 -37,12 -16,0 -28,-3 -38,-9 -9,-7 -16,-16 -21,-27 -5,-12 -8,-25 -8,-38 0,-15 3,-28 9,-39 5,-11 13,-19 24,-25 10,-6 21,-8 34,-8 14,0 26,3 36,10 9,8 16,18 20,31l-19 4c-3,-10 -8,-18 -14,-22 -6,-5 -14,-7 -23,-7 -11,0 -20,2 -28,7 -7,6 -12,13 -15,21 -3,9 -4,18 -4,28 0,12 1,22 5,31 3,9 9,16 16,20 8,5 16,7 24,7 11,0 19,-3 27,-9 7,-6 12,-15 14,-27zm37 -19c0,-24 6,-42 19,-56 12,-13 29,-19 49,-19 13,0 24,3 35,9 10,6 18,15 24,26 5,11 8,24 8,38 0,14 -3,27 -8,39 -6,11 -14,19 -25,25 -11,6 -22,9 -35,9 -13,0 -25,-3 -35,-10 -11,-6 -19,-15 -24,-26 -6,-11 -8,-23 -8,-35zm19 0c0,17 5,30 14,40 9,10 21,15 34,15 14,0 26,-5 35,-15 9,-10 14,-24 14,-42 0,-12 -2,-22 -6,-30 -4,-9 -10,-15 -17,-20 -8,-5 -16,-7 -25,-7 -14,0 -25,4 -35,13 -9,10 -14,25 -14,46zm241 19l19 5c-4,15 -11,27 -21,35 -10,8 -23,12 -38,12 -15,0 -27,-3 -37,-9 -9,-7 -17,-16 -22,-27 -5,-12 -7,-25 -7,-38 0,-15 3,-28 8,-39 6,-11 14,-19 24,-25 11,-6 22,-8 35,-8 14,0 26,3 35,10 10,8 17,18 21,31l-19 4c-3,-10 -8,-18 -14,-22 -6,-5 -14,-7 -24,-7 -10,0 -20,2 -27,7 -7,6 -12,13 -15,21 -3,9 -5,18 -5,28 0,12 2,22 6,31 3,9 9,16 16,20 7,5 15,7 24,7 10,0 19,-3 27,-9 7,-6 12,-15 14,-27zm45 50l0 -142 19 0 0 142 -19 0zm52 0l0 -142 19 0 75 111 0 -111 18 0 0 142 -20 0 -74 -112 0 112 -18 0zm128 0l54 -142 21 0 57 142 -21 0 -17 -43 -59 0 -16 43 -19 0zm40 -59l49 0 -15 -39c-5,-12 -8,-22 -10,-29 -2,9 -5,18 -8,27l-16 41z"/>
  <rect class="fil1 str1" x="3574" y="248" width="4729" height="8083"/>
 </g>
</svg>
