<?xml version="1.0" encoding="UTF-8"?>
<!DOCTYPE svg PUBLIC "-//W3C//DTD SVG 1.0//EN" "http://www.w3.org/TR/2001/REC-SVG-20010904/DTD/svg10.dtd">
<!-- Creator: CorelDRAW X7 -->
<svg xmlns="http://www.w3.org/2000/svg" xml:space="preserve" width="11in" height="8.5in" version="1.0" style="shape-rendering:geometricPrecision; text-rendering:geometricPrecision; image-rendering:optimizeQuality; fill-rule:evenodd; clip-rule:evenodd"
viewBox="0 0 11000 8500"
 xmlns:xlink="http://www.w3.org/1999/xlink">
 <defs>
  <style type="text/css">
   <![CDATA[
    .str2 {stroke:#373435;stroke-width:6.94488}
    .str1 {stroke:#373435;stroke-width:3}
    .str0 {stroke:#373435;stroke-width:3}
    .fil0 {fill:none}
    .fil1 {fill:#FEFEFE}
    .fil2 {fill:#3E4095}
    .fil3 {fill:#FEFEFE;fill-rule:nonzero}
    .fil4 {fill:#373435;fill-rule:nonzero}
   ]]>
  </style>
 </defs>
 <g id="Capa_x0020_1">
  <metadata id="CorelCorpID_0Corel-Layer"/>
  <rect class="fil0 str0" x="5507" y="2416" width="535" height="316"/>
  <rect class="fil0 str0" x="4961" y="2416" width="545" height="316"/>
  <rect class="fil0 str0" x="4436" y="2247" width="524" height="309"/>
  <rect class="fil0 str0" x="3883" y="2247" width="550" height="300"/>
  <rect class="fil0 str0" x="3350" y="2341" width="433" height="201"/>
  <rect class="fil0 str0" x="3350" y="2091" width="433" height="250"/>
  <rect class="fil0 str0" x="3349" y="1259" width="440" height="216"/>
  <rect class="fil0 str0" x="3349" y="1476" width="440" height="269"/>
  <rect class="fil0 str0" x="3350" y="1259" width="533" height="1288"/>
  <polygon class="fil0 str0" points="3883,2245 4917,2245 4917,2247 4961,2247 4961,2416 6041,2416 6041,2247 5305,2247 4960,2087 4933,2087 4244,2087 4244,1750 4972,1750 5308,1596 6053,1596 6053,1437 4972,1437 4972,1596 4244,1596 3887,1596 3885,1596 3885,2087 3883,2087 "/>
  <rect class="fil0 str0" x="4442" y="1257" width="530" height="339"/>
  <rect class="fil0 str0" x="3883" y="1257" width="556" height="339"/>
  <rect class="fil0 str0" x="5520" y="1096" width="534" height="341"/>
  <rect class="fil0 str0" x="4975" y="1096" width="544" height="341"/>
  <polygon class="fil0 str0" points="6041,2732 5276,4121 3445,4115 3438,8233 3321,8233 3350,2548 4961,2556 4961,2732 "/>
  <polygon class="fil0 str0" points="7555,4496 7888,3662 8253,4511 "/>
  <polygon class="fil0 str0" points="8461,4511 8701,4511 8701,3537 7997,3532 "/>
  <polygon class="fil0 str0" points="8701,3350 8701,2355 8008,3355 "/>
  <rect class="fil0 str0" x="10112" y="610" width="417" height="1573"/>
  <path class="fil0 str0" d="M6862 2339l854 1032 -1344 2906 -145 10 0 688 -313 0 0 138 -598 1 -1 -108 -5 0 0 -200c65,-10 118,-47 152,-102l150 0 0 -422 -83 -5 10 -1787 1323 -2151z"/>
  <line class="fil0 str0" x1="9273" y1="6709" x2="9273" y2= "8220" />
  <rect class="fil0 str0" x="7964" y="6714" width="2620" height="1516"/>
  <rect class="fil0 str0" x="7964" y="7058" width="351" height="835"/>
  <rect class="fil0 str0" x="7964" y="7199" width="212" height="554"/>
  <line class="fil0 str0" x1="9274" y1="6714" x2="9274" y2= "8230" />
  <ellipse class="fil0 str0" cx="9274" cy="7472" rx="268" ry="271"/>
  <path class="fil0 str0" d="M8319 7303c82,6 148,82 148,176 0,93 -66,170 -148,175l0 -351z"/>
  <rect class="fil0 str0" x="10231" y="7058" width="351" height="835"/>
  <rect class="fil0 str0" x="10370" y="7197" width="212" height="554"/>
  <path class="fil0 str0" d="M10228 7647c-83,-5 -148,-82 -148,-175 0,-94 65,-170 148,-175l0 350z"/>
  <rect class="fil0 str0" x="9716" y="4961" width="656" height="1267"/>
  <rect class="fil0 str0" x="9780" y="5950" width="528" height="278"/>
  <rect class="fil0 str0" x="9780" y="4966" width="528" height="273"/>
  <rect class="fil0 str0" x="9716" y="4961" width="63.5039" height="1266.93"/>
  <rect class="fil0 str0" x="10308" y="4961" width="63.5039" height="1266.93"/>
  <rect class="fil0 str0" x="10044" y="5239" width="264" height="711"/>
  <rect class="fil0 str0" x="9780" y="5239" width="265" height="711"/>
  <rect class="fil0 str0" x="9716" y="5569" width="656.25" height="17.3646"/>
  <rect class="fil0 str0" x="8546" y="4961" width="656" height="1267"/>
  <rect class="fil0 str0" x="8610" y="5950" width="528" height="278"/>
  <rect class="fil0 str0" x="8610" y="4966" width="528" height="273"/>
  <rect class="fil0 str0" x="8546" y="4961" width="63.5039" height="1266.93"/>
  <rect class="fil0 str0" x="9138" y="4961" width="63.5039" height="1266.93"/>
  <rect class="fil0 str0" x="8874" y="5239" width="264" height="711"/>
  <rect class="fil0 str0" x="8610" y="5239" width="265" height="711"/>
  <rect class="fil0 str0" x="8546" y="5569" width="656.25" height="17.3646"/>
  <rect class="fil0 str0" x="9498" y="4620" width="1052" height="1969"/>
  <rect class="fil0 str0" x="8358" y="4620" width="1052" height="1969"/>
  <polyline class="fil0 str0" points="8358,4620 7545,4620 7555,4948 7383,5063 7391,6715 7964,6714 "/>
  <rect class="fil0 str0" x="7555" y="5094" width="684" height="1448"/>
  <rect class="fil0 str0" x="7618" y="5171" width="568" height="1329"/>
  <rect class="fil0 str0" x="7644" y="5119" width="61.2008" height="29.9488"/>
  <rect class="fil0 str0" x="7784" y="5119" width="61.2008" height="29.9488"/>
  <rect class="fil0 str0" x="7944" y="5119" width="61.2008" height="29.9488"/>
  <rect class="fil0 str0" x="8104" y="5119" width="61.2008" height="29.9488"/>
  <line class="fil0 str0" x1="8055" y1="6500" x2="8055" y2= "5171" />
  <line class="fil0 str0" x1="7902" y1="6500" x2="7902" y2= "5171" />
  <line class="fil0 str0" x1="7737" y1="6500" x2="7737" y2= "5171" />
  <rect class="fil0 str0" x="7269" y="6744" width="695" height="1486"/>
  <polygon class="fil0 str0" points="8847,2207 7816,2213 7823,1924 8002,1924 8003,1666 8202,1665 8222,1541 8421,835 8538,835 8538,602 8847,598 "/>
  <rect class="fil0 str0" x="8538" y="598" width="309" height="237"/>
  <rect class="fil0 str0" x="8538" y="835" width="309" height="197"/>
  <line class="fil0 str0" x1="8538" y1="1032" x2="8367" y2= "1028" />
  <polygon class="fil0 str0" points="8221,1664 8002,1664 8002,1924 7823,1924 7823,2207 8847,2207 8847,1924 8221,1924 "/>
  <path class="fil0 str0" d="M8603 2209l-734 1057 -839 -1052 401 -682c0,0 -599,-193 -442,-922"/>
  <polyline class="fil0 str0" points="6053,1096 6530,1089 6989,610 "/>
  <polyline class="fil0 str0" points="5276,4121 5265,6047 5056,6037 "/>
  <rect class="fil0 str0" x="4726" y="6037" width="330" height="245"/>
  <rect class="fil0 str0" x="4726" y="6282" width="886" height="421"/>
  <rect class="fil0 str0" x="6227" y="6287" width="551" height="1475"/>
  <rect class="fil0 str0" x="5914" y="6975" width="313" height="688"/>
  <rect class="fil0 str0" x="5315" y="7113" width="599" height="550"/>
  <rect class="fil0 str0" x="4152" y="6037" width="574" height="965"/>
  <rect class="fil0 str0" x="4726" y="6704" width="584" height="302"/>
  <rect class="fil0 str0" x="4726" y="7006" width="589" height="490"/>
  <rect class="fil0 str0" x="5126" y="7497" width="188" height="270"/>
  <rect class="fil0 str0" x="4152" y="7002" width="568" height="766"/>
  <rect class="fil0 str0" x="8793" y="2429" width="1755" height="2068"/>
  <rect class="fil0 str0" x="8793" y="2429" width="1755" height="922"/>
  <rect class="fil0 str0" x="8793" y="3403" width="1755" height="1094"/>
  <rect class="fil0 str0" x="8845" y="3523" width="1703" height="823"/>
  <line class="fil0 str0" x1="9663" y1="3523" x2="9663" y2= "4345" />
  <circle class="fil0 str0" cx="9670" cy="3942" r="117"/>
  <circle class="fil0 str0" cx="10167" cy="3939" r="104"/>
  <line class="fil0 str0" x1="10548" y1="4111" x2="10196" y2= "4039" />
  <line class="fil0 str0" x1="10189" y1="3837" x2="10548" y2= "3773" />
  <line class="fil0 str0" x1="10548" y1="3934" x2="10424" y2= "3935" />
  <ellipse class="fil0 str0" cx="10404" cy="3935" rx="21" ry="22"/>
  <rect class="fil0 str0" x="10425" y="3888" width="19.5315" height="105.469"/>
  <path class="fil0 str0" d="M10548 4259l-207 2c0,0 -318,-55 -295,-332 23,-277 301,-321 301,-321l201 0"/>
  <circle class="fil0 str0" cx="9226" cy="3930" r="104"/>
  <line class="fil0 str0" x1="8845" y1="3758" x2="9197" y2= "3830" />
  <line class="fil0 str0" x1="9204" y1="4032" x2="8845" y2= "4097" />
  <line class="fil0 str0" x1="8845" y1="3935" x2="8969" y2= "3934" />
  <ellipse class="fil0 str0" cx="8989" cy="3934" rx="21" ry="22"/>
  <rect class="fil0 str0" x="8949" y="3876" width="19.5315" height="105.469"/>
  <path class="fil0 str0" d="M8845 3610l207 -2c0,0 318,56 295,332 -23,277 -301,321 -301,321l-201 0"/>
  <line class="fil0 str0" x1="9226" y1="3826" x2="9226" y2= "4035" />
  <line class="fil0 str0" x1="10167" y1="3835" x2="10167" y2= "4043" />
  <rect class="fil0 str0" x="8845" y="2483" width="1703" height="823"/>
  <line class="fil0 str0" x1="9663" y1="2483" x2="9663" y2= "3305" />
  <circle class="fil0 str0" cx="9670" cy="2902" r="117"/>
  <circle class="fil0 str0" cx="10167" cy="2899" r="104"/>
  <line class="fil0 str0" x1="10548" y1="3071" x2="10196" y2= "2999" />
  <line class="fil0 str0" x1="10189" y1="2797" x2="10548" y2= "2733" />
  <line class="fil0 str0" x1="10548" y1="2894" x2="10424" y2= "2895" />
  <ellipse class="fil0 str0" cx="10404" cy="2895" rx="21" ry="22"/>
  <rect class="fil0 str0" x="10425" y="2848" width="19.5315" height="105.469"/>
  <path class="fil0 str0" d="M10548 3219l-207 2c0,0 -318,-55 -295,-332 23,-277 301,-321 301,-321l201 0"/>
  <circle class="fil0 str0" cx="9226" cy="2890" r="104"/>
  <line class="fil0 str0" x1="8845" y1="2718" x2="9197" y2= "2790" />
  <line class="fil0 str0" x1="9204" y1="2992" x2="8845" y2= "3057" />
  <line class="fil0 str0" x1="8845" y1="2895" x2="8969" y2= "2894" />
  <ellipse class="fil0 str0" cx="8989" cy="2894" rx="21" ry="22"/>
  <rect class="fil0 str0" x="8949" y="2836" width="19.5315" height="105.469"/>
  <path class="fil0 str0" d="M8845 2570l207 -2c0,0 318,56 295,332 -23,277 -301,321 -301,321l-201 0"/>
  <line class="fil0 str0" x1="9226" y1="2786" x2="9226" y2= "2995" />
  <line class="fil0 str0" x1="10167" y1="2795" x2="10167" y2= "3003" />
  <path class="fil0 str0" d="M6231 4969c0,0 339,109 537,-224 198,-333 -26,-766 -26,-766 0,0 -203,-145 -651,375 -448,521 140,615 140,615z"/>
  <rect class="fil0 str0" x="10584" y="298" width="105" height="7932"/>
  <rect class="fil0 str0" transform="matrix(2.51469E-014 -1 0.949493 2.64845E-014 3320.65 8338.09)" width="105" height="7761"/>
  <rect class="fil0 str0" transform="matrix(2.50566E-014 -1 0.946084 2.64845E-014 3349.02 297.756)" width="105" height="7761"/>
  <rect class="fil1 str0" x="3349" y="192" width="105" height="1067"/>
  <line class="fil0 str0" x1="6989" y1="610" x2="6989" y2= "298" />
  <path class="fil0 str1" d="M6053 1595c269,6 345,7 345,320 0,296 -163,335 -357,332"/>
  <polygon class="fil0 str1" points="8003,1665 8202,1665 8225,1530 8102,1531 8102,1376 8174,1376 8174,1299 7937,1298 7937,1376 8003,1376 8003,1531 "/>
  <rect class="fil0 str1" x="8140" y="1531" width="12.4503" height="134.789"/>
  <rect class="fil0 str1" x="8127" y="1531" width="12.4503" height="134.789"/>
  <rect class="fil0 str1" x="8114" y="1531" width="12.4503" height="134.789"/>
  <rect class="fil0 str1" x="8101" y="1531" width="12.4503" height="134.789"/>
  <rect class="fil0 str1" transform="matrix(5.7025E-015 -0.321618 0.215314 8.5179E-015 8002.96 1471.91)" width="57.2677" height="455.059"/>
  <rect class="fil0 str1" transform="matrix(5.7025E-015 -0.321618 0.215314 8.5179E-015 8002.96 1491.21)" width="57.2677" height="455.059"/>
  <rect class="fil0 str1" transform="matrix(5.7025E-015 -0.321618 0.215314 8.5179E-015 8002.96 1510.51)" width="57.2677" height="455.059"/>
  <rect class="fil0 str1" transform="matrix(5.7025E-015 -0.321618 0.215314 8.5179E-015 8002.96 1529.81)" width="57.2677" height="455.059"/>
  <rect class="fil0 str1" transform="matrix(5.7025E-015 -0.321618 0.215314 8.5179E-015 8002.96 1394.73)" width="57.2677" height="455.059"/>
  <rect class="fil0 str1" transform="matrix(5.7025E-015 -0.321618 0.215314 8.5179E-015 8002.96 1414.02)" width="57.2677" height="455.059"/>
  <rect class="fil0 str1" transform="matrix(5.7025E-015 -0.321618 0.215314 8.5179E-015 8002.96 1433.32)" width="57.2677" height="455.059"/>
  <rect class="fil0 str1" transform="matrix(5.7025E-015 -0.321618 0.215314 8.5179E-015 8002.96 1452.62)" width="57.2677" height="455.059"/>
  <rect class="fil0 str1" x="8140" y="1531" width="12.4503" height="134.789"/>
  <rect class="fil0 str1" x="8127" y="1531" width="12.4503" height="134.789"/>
  <rect class="fil0 str1" x="8114" y="1531" width="12.4503" height="134.789"/>
  <rect class="fil0 str1" x="8101" y="1531" width="12.4503" height="134.789"/>
  <rect class="fil0 str1" transform="matrix(5.7025E-015 -0.321618 0.215314 8.5179E-015 8002.96 1529.81)" width="57.2677" height="455.059"/>
  <rect class="fil0 str1" x="8165" y="1299" width="6.72418" height="77.1829"/>
  <rect class="fil0 str1" x="8158" y="1299" width="6.72418" height="77.1829"/>
  <rect class="fil0 str1" x="8151" y="1299" width="6.72418" height="77.1829"/>
  <rect class="fil0 str1" x="8144" y="1299" width="6.72418" height="77.1829"/>
  <rect class="fil0 str1" x="8165" y="1299" width="6.72418" height="77.1829"/>
  <rect class="fil0 str1" x="8158" y="1299" width="6.72418" height="77.1829"/>
  <rect class="fil0 str1" x="8151" y="1299" width="6.72418" height="77.1829"/>
  <rect class="fil0 str1" x="8144" y="1299" width="6.72418" height="77.1829"/>
  <rect class="fil0 str1" x="8137" y="1299" width="6.72418" height="77.1829"/>
  <rect class="fil0 str1" x="8130" y="1299" width="6.72418" height="77.1829"/>
  <rect class="fil0 str1" x="8123" y="1299" width="6.72418" height="77.1829"/>
  <rect class="fil0 str1" x="8115" y="1299" width="6.72418" height="77.1829"/>
  <rect class="fil0 str1" x="8137" y="1299" width="6.72418" height="77.1829"/>
  <rect class="fil0 str1" x="8130" y="1299" width="6.72418" height="77.1829"/>
  <rect class="fil0 str1" x="8123" y="1299" width="6.72418" height="77.1829"/>
  <rect class="fil0 str1" x="8115" y="1299" width="6.72418" height="77.1829"/>
  <rect class="fil0 str1" x="7995" y="1299" width="6.72418" height="77.1829"/>
  <rect class="fil0 str1" x="7988" y="1299" width="6.72418" height="77.1829"/>
  <rect class="fil0 str1" x="7981" y="1299" width="6.72418" height="77.1829"/>
  <rect class="fil0 str1" x="7974" y="1299" width="6.72418" height="77.1829"/>
  <rect class="fil0 str1" x="7995" y="1299" width="6.72418" height="77.1829"/>
  <rect class="fil0 str1" x="7988" y="1299" width="6.72418" height="77.1829"/>
  <rect class="fil0 str1" x="7981" y="1299" width="6.72418" height="77.1829"/>
  <rect class="fil0 str1" x="7974" y="1299" width="6.72418" height="77.1829"/>
  <rect class="fil0 str1" x="8109" y="1299" width="6.72418" height="77.1829"/>
  <rect class="fil0 str1" x="8102" y="1299" width="6.72418" height="77.1829"/>
  <rect class="fil0 str1" x="8109" y="1299" width="6.72418" height="77.1829"/>
  <rect class="fil0 str1" x="8102" y="1299" width="6.72418" height="77.1829"/>
  <rect class="fil0 str1" x="7967" y="1299" width="6.72418" height="77.1829"/>
  <rect class="fil0 str1" x="7960" y="1299" width="6.72418" height="77.1829"/>
  <rect class="fil0 str1" x="7953" y="1299" width="6.72418" height="77.1829"/>
  <rect class="fil0 str1" x="7946" y="1299" width="6.72418" height="77.1829"/>
  <rect class="fil0 str1" x="7967" y="1299" width="6.72418" height="77.1829"/>
  <rect class="fil0 str1" x="7960" y="1299" width="6.72418" height="77.1829"/>
  <rect class="fil0 str1" x="7953" y="1299" width="6.72418" height="77.1829"/>
  <rect class="fil0 str1" x="7946" y="1299" width="6.72418" height="77.1829"/>
  <ellipse class="fil0 str1" transform="matrix(8.88671E-015 -0.335543 0.335543 8.88671E-015 8482.62 775.473)" rx="165" ry="166"/>
  <line class="fil0 str1" x1="8538" y1="775" x2="8427" y2= "775" />
  <line class="fil0 str1" x1="8483" y1="831" x2="8483" y2= "720" />
  <line class="fil0 str1" x1="8520" y1="735" x2="8445" y2= "816" />
  <line class="fil0 str1" x1="8523" y1="814" x2="8442" y2= "738" />
  <line class="fil0 str1" x1="8847" y1="598" x2="8847" y2= "298" />
  <rect class="fil0 str2" x="3864" y="652" width="2125" height="138" rx="76" ry="45"/>
  <rect class="fil0 str1" x="4247" y="1828" width="27.5071" height="182.949"/>
  <rect class="fil0 str1" x="4274" y="1828" width="27.5071" height="182.949"/>
  <rect class="fil0 str1" x="4303" y="1828" width="27.5071" height="182.949"/>
  <rect class="fil0 str1" x="4332" y="1828" width="103" height="183"/>
  <rect class="fil0 str1" x="4434" y="1828" width="27.5071" height="182.949"/>
  <rect class="fil0 str1" x="4460" y="1828" width="27.5071" height="182.949"/>
  <rect class="fil0 str1" x="4487" y="1828" width="27.5071" height="182.949"/>
  <rect class="fil0 str1" x="4514" y="1828" width="103" height="183"/>
  <rect class="fil0 str1" x="4616" y="1828" width="27.5071" height="182.949"/>
  <rect class="fil0 str1" x="4642" y="1828" width="27.5071" height="182.949"/>
  <rect class="fil0 str1" x="4669" y="1828" width="27.5071" height="182.949"/>
  <rect class="fil0 str1" x="4696" y="1828" width="27.5071" height="182.949"/>
  <rect class="fil0 str1" x="4722" y="1828" width="27.5071" height="182.949"/>
  <rect class="fil0 str1" x="4749" y="1828" width="27.5071" height="182.949"/>
  <rect class="fil0 str1" x="4247" y="2011" width="529.308" height="20.9088"/>
  <rect class="fil0 str1" x="4247" y="1807" width="529.308" height="20.9088"/>
  <rect class="fil0 str1" x="4777" y="1750" width="99.4257" height="337.263"/>
  <rect class="fil0 str2" x="9324" y="1905" width="518" height="209"/>
  <rect class="fil0 str2" x="9324" y="1583" width="518" height="209"/>
  <rect class="fil0 str2" x="9324" y="1270" width="518" height="209"/>
  <rect class="fil0 str2" x="9324" y="963" width="518" height="209"/>
  <rect class="fil0 str2" x="9350" y="1933" width="469" height="148"/>
  <rect class="fil0 str2" x="9349" y="1614" width="469" height="148"/>
  <rect class="fil0 str2" x="9349" y="1301" width="469" height="148"/>
  <rect class="fil0 str2" x="9349" y="993" width="469" height="148"/>
  <rect class="fil0" y="12" width="11009" height="8500"/>
  <ellipse class="fil2 str2" cx="5547" cy="1947" rx="141" ry="146"/>
  <path class="fil3" d="M5583 2044l-24 0 0 -152c-6,6 -13,11 -23,17 -9,5 -17,9 -25,12l0 -23c14,-6 25,-14 35,-23 10,-9 17,-17 22,-26l15 0 0 195z"/>
  <ellipse class="fil2 str2" cx="8569" cy="1509" rx="141" ry="146"/>
  <path class="fil3" d="M8634 1584l0 23 -129 0c0,-6 1,-12 3,-17 3,-9 9,-17 16,-26 7,-8 18,-18 31,-29 21,-17 35,-31 43,-41 7,-10 11,-20 11,-29 0,-9 -3,-17 -10,-24 -7,-6 -16,-9 -27,-9 -11,0 -20,3 -27,10 -7,7 -11,16 -11,28l-24 -2c2,-18 8,-32 19,-42 11,-9 25,-14 44,-14 19,0 33,5 44,15 11,11 16,24 16,39 0,8 -1,15 -4,23 -3,7 -9,15 -16,23 -8,9 -20,20 -37,35 -14,12 -23,20 -27,24 -4,4 -8,9 -11,13l96 0z"/>
  <ellipse class="fil2 str2" cx="6970" cy="3452" rx="141" ry="146"/>
  <path class="fil3" d="M6907 3496l24 -3c3,14 7,23 14,29 6,6 14,9 24,9 11,0 21,-4 28,-11 8,-8 12,-18 12,-29 0,-11 -4,-20 -11,-27 -7,-7 -16,-11 -27,-11 -5,0 -10,1 -17,3l3 -21c1,0 2,0 3,0 11,0 20,-3 28,-8 8,-5 12,-13 12,-24 0,-9 -3,-16 -9,-22 -6,-6 -13,-8 -23,-8 -9,0 -17,2 -23,8 -6,6 -10,15 -12,27l-24 -5c3,-16 10,-28 20,-37 11,-9 23,-13 39,-13 10,0 20,2 29,7 9,4 16,11 20,18 5,8 8,17 8,25 0,9 -3,16 -7,23 -5,7 -11,12 -20,17 11,2 20,8 27,16 6,8 9,19 9,31 0,17 -6,32 -19,43 -12,12 -28,18 -46,18 -17,0 -32,-5 -43,-15 -11,-10 -17,-23 -19,-40z"/>
  <ellipse class="fil2 str2" cx="7963" cy="4874" rx="141" ry="146"/>
  <path class="fil3" d="M7980 4971l0 -47 -84 0 0 -22 88 -125 20 0 0 125 26 0 0 22 -26 0 0 47 -24 0zm0 -69l0 -87 -61 87 61 0z"/>
  <path class="fil4" d="M584 785l0 -239 47 0 56 169c6,16 9,28 12,36 2,-9 7,-22 12,-39l58 -166 42 0 0 239 -30 0 0 -200 -70 200 -28 0 -69 -203 0 203 -30 0zm252 0l91 -239 35 0 97 239 -36 0 -27 -72 -101 0 -26 72 -33 0zm68 -98l82 0 -25 -66c-8,-20 -13,-37 -17,-50 -4,16 -8,31 -13,46l-27 70zm180 98l0 -239 90 0c16,0 28,1 37,3 11,2 21,5 29,11 8,5 14,13 19,23 5,10 8,21 8,32 0,21 -7,38 -20,52 -13,14 -36,21 -70,21l-61 0 0 97 -32 0zm32 -125l62 0c20,0 34,-4 43,-12 9,-7 13,-18 13,-32 0,-10 -3,-18 -8,-25 -5,-7 -11,-12 -20,-14 -5,-2 -15,-3 -29,-3l-61 0 0 86zm140 125l91 -239 35 0 97 239 -36 0 -27 -72 -101 0 -26 72 -33 0zm68 -98l82 0 -25 -66c-8,-20 -13,-37 -17,-50 -4,16 -8,31 -14,46l-26 70zm255 98l0 -239 172 0 0 28 -140 0 0 74 131 0 0 28 -131 0 0 81 146 0 0 28 -178 0zm211 -77l30 -2c1,12 5,22 10,29 5,8 13,14 24,19 11,5 23,7 36,7 13,0 23,-2 32,-5 10,-4 16,-9 21,-15 4,-6 7,-13 7,-21 0,-7 -2,-13 -7,-19 -4,-6 -11,-10 -21,-14 -7,-3 -21,-6 -43,-12 -22,-5 -37,-10 -46,-15 -11,-6 -20,-13 -25,-22 -6,-9 -9,-19 -9,-30 0,-12 4,-23 11,-33 6,-11 16,-19 30,-24 13,-6 27,-9 43,-9 18,0 34,3 47,9 14,6 24,14 31,25 8,11 11,24 12,38l-30 2c-2,-15 -7,-26 -17,-34 -9,-8 -23,-12 -41,-12 -20,0 -33,4 -42,11 -9,7 -13,15 -13,25 0,9 3,16 9,21 6,6 22,12 48,17 25,6 43,11 52,16 14,6 25,14 31,24 7,10 10,21 10,34 0,13 -4,24 -11,36 -7,11 -18,20 -31,26 -14,6 -29,9 -46,9 -22,0 -40,-3 -54,-9 -15,-7 -26,-16 -35,-29 -8,-12 -12,-27 -13,-43zm403 -7l32 8c-7,26 -19,46 -36,60 -17,13 -38,20 -63,20 -26,0 -47,-5 -63,-16 -16,-10 -28,-25 -36,-45 -9,-20 -13,-41 -13,-64 0,-25 5,-46 14,-65 10,-18 23,-33 41,-42 17,-10 37,-15 58,-15 23,0 43,7 60,19 16,12 27,29 34,51l-31 7c-6,-17 -14,-30 -24,-38 -11,-8 -24,-12 -40,-12 -18,0 -34,5 -46,14 -12,8 -21,20 -26,35 -5,15 -7,30 -7,46 0,20 3,38 9,53 5,15 15,26 27,34 12,7 26,11 40,11 18,0 33,-5 45,-15 12,-10 21,-25 25,-46zm61 -32c0,-40 11,-71 32,-93 21,-22 49,-34 82,-34 22,0 42,6 60,16 18,11 31,25 40,44 10,19 14,40 14,64 0,24 -4,46 -14,65 -10,19 -24,34 -42,43 -18,10 -37,15 -58,15 -22,0 -42,-5 -60,-16 -18,-11 -31,-26 -40,-45 -9,-18 -14,-38 -14,-59zm33 1c0,28 7,51 23,67 15,17 35,25 58,25 24,0 43,-8 59,-25 15,-17 23,-40 23,-71 0,-19 -4,-36 -10,-51 -7,-14 -16,-25 -29,-33 -13,-8 -27,-12 -42,-12 -23,0 -42,7 -58,23 -16,15 -24,41 -24,77zm235 115l0 -239 31 0 0 211 118 0 0 28 -149 0zm160 0l92 -239 35 0 97 239 -36 0 -28 -72 -100 0 -26 72 -34 0zm69 -98l81 0 -25 -66c-7,-20 -13,-37 -17,-50 -3,16 -7,31 -13,46l-26 70zm180 98l0 -239 106 0c21,0 38,3 49,7 11,4 20,12 26,23 7,10 10,22 10,36 0,16 -5,31 -16,42 -11,12 -28,19 -51,22 8,4 15,8 19,12 9,9 18,19 26,32l41 65 -39 0 -32 -50c-9,-14 -16,-25 -22,-32 -6,-8 -12,-13 -16,-16 -5,-3 -10,-6 -15,-7 -3,0 -9,-1 -17,-1l-37 0 0 106 -32 0zm32 -133l68 0c14,0 26,-2 34,-5 8,-3 14,-7 18,-14 4,-7 6,-14 6,-21 0,-12 -4,-21 -12,-28 -8,-8 -21,-11 -38,-11l-76 0 0 79z"/>
  <path class="fil2 str2" d="M648 1190c77,0 140,65 140,146 0,81 -63,146 -140,146 -78,0 -141,-65 -141,-146 0,-81 63,-146 141,-146z"/>
  <path class="fil3" d="M675 1431l-24 0 0 -152c-5,6 -13,11 -22,17 -9,5 -18,9 -25,12l0 -23c13,-6 25,-14 35,-23 10,-9 17,-17 21,-26l15 0 0 195z"/>
  <path class="fil4" d="M1159 1412l0 -159 60 0c11,0 19,0 24,1 8,1 15,4 20,8 5,3 9,8 13,15 3,6 5,14 5,22 0,13 -5,25 -13,34 -9,9 -25,14 -47,14l-41 0 0 65 -21 0zm21 -84l41 0c14,0 23,-2 29,-7 6,-5 9,-13 9,-22 0,-6 -2,-12 -5,-17 -4,-5 -8,-8 -14,-9 -3,-1 -10,-2 -19,-2l-41 0 0 57zm93 84l61 -159 23 0 65 159 -24 0 -18 -48 -67 0 -17 48 -23 0zm46 -66l54 0 -16 -44c-5,-13 -9,-24 -12,-33 -2,10 -5,21 -9,31l-17 46zm144 66l0 -141 -53 0 0 -18 126 0 0 18 -52 0 0 141 -21 0zm99 0l0 -159 21 0 0 159 -21 0zm51 -78c0,-26 8,-47 22,-62 14,-15 32,-22 55,-22 14,0 28,4 39,11 12,7 21,16 27,29 7,12 10,27 10,42 0,17 -4,31 -10,44 -7,12 -16,22 -28,29 -12,6 -25,9 -38,9 -15,0 -29,-3 -41,-10 -11,-8 -20,-17 -26,-30 -6,-12 -10,-26 -10,-40zm22 1c0,19 5,34 16,45 10,11 23,16 38,16 16,0 29,-5 40,-16 10,-11 15,-27 15,-48 0,-12 -2,-24 -7,-33 -4,-10 -10,-18 -19,-23 -8,-5 -18,-8 -28,-8 -15,0 -28,5 -39,16 -10,10 -16,27 -16,51z"/>
  <path class="fil2 str2" d="M654 1725c77,0 140,66 140,146 0,81 -63,146 -140,146 -78,0 -141,-65 -141,-146 0,-80 63,-146 141,-146z"/>
  <path class="fil3" d="M718 1946l0 22 -129 0c0,-5 1,-11 3,-16 4,-9 9,-17 16,-26 7,-8 18,-18 31,-29 21,-17 36,-31 43,-41 7,-10 11,-20 11,-29 0,-9 -3,-17 -10,-24 -7,-6 -16,-10 -26,-10 -12,0 -21,4 -28,11 -7,7 -10,16 -11,28l-24 -2c2,-19 8,-32 19,-42 11,-10 26,-14 44,-14 19,0 33,5 44,15 11,10 17,23 17,39 0,7 -2,15 -5,22 -3,8 -9,16 -16,24 -7,8 -20,20 -37,34 -14,12 -23,20 -27,25 -4,4 -8,8 -10,13l95 0z"/>
  <path class="fil4" d="M1151 1897l17 -1c1,7 3,12 6,17 3,4 8,8 14,11 6,2 13,4 21,4 7,0 13,-1 19,-3 5,-2 9,-5 12,-9 2,-4 4,-8 4,-12 0,-4 -2,-8 -4,-11 -3,-4 -7,-6 -13,-9 -3,-1 -12,-3 -24,-6 -13,-3 -22,-6 -27,-9 -7,-4 -12,-8 -15,-13 -3,-5 -5,-11 -5,-17 0,-7 2,-14 6,-20 4,-6 10,-11 17,-14 8,-3 17,-5 26,-5 10,0 19,2 27,5 8,4 14,8 19,15 4,6 6,14 6,22l-17 1c-1,-9 -5,-15 -10,-20 -5,-4 -14,-6 -24,-6 -11,0 -20,2 -25,6 -5,4 -7,9 -7,14 0,5 2,10 5,13 4,3 13,6 28,10 15,3 25,6 31,9 8,3 14,8 18,14 4,5 5,12 5,20 0,7 -2,14 -6,20 -4,7 -10,12 -18,16 -8,3 -17,5 -27,5 -13,0 -23,-2 -32,-5 -8,-4 -15,-10 -20,-17 -4,-7 -7,-16 -7,-25zm120 45l54 -139 20 0 57 139 -21 0 -16 -42 -59 0 -15 42 -20 0zm40 -57l48 0 -15 -39c-4,-12 -7,-21 -10,-29 -2,9 -4,18 -7,27l-16 41zm104 57l0 -139 19 0 0 122 68 0 0 17 -87 0zm94 0l53 -139 21 0 56 139 -21 0 -16 -42 -58 0 -15 42 -20 0zm40 -57l48 0 -15 -39c-4,-12 -8,-21 -10,-29 -2,9 -4,18 -8,27l-15 41zm148 57l0 -139 48 0c11,0 19,0 25,2 8,1 15,5 20,10 8,6 13,14 17,23 4,10 5,21 5,33 0,11 -1,20 -3,29 -3,8 -6,14 -10,20 -4,5 -8,9 -12,12 -5,3 -11,6 -17,7 -7,2 -14,3 -22,3l-51 0zm19 -17l29 0c10,0 17,0 22,-2 5,-2 9,-4 13,-7 4,-5 7,-11 10,-18 2,-7 3,-16 3,-27 0,-14 -2,-26 -7,-34 -5,-7 -10,-13 -17,-15 -5,-2 -13,-3 -24,-3l-29 0 0 106zm122 17l0 -139 101 0 0 16 -82 0 0 43 76 0 0 16 -76 0 0 47 85 0 0 17 -104 0zm183 0l0 -139 48 0c11,0 20,0 25,2 8,1 15,5 21,10 7,6 12,14 16,23 4,10 6,21 6,33 0,11 -2,20 -4,29 -3,8 -6,14 -10,20 -4,5 -8,9 -12,12 -5,3 -10,6 -17,7 -6,2 -14,3 -22,3l-51 0zm19 -17l30 0c9,0 16,0 21,-2 5,-2 10,-4 13,-7 4,-5 7,-11 10,-18 2,-7 4,-16 4,-27 0,-14 -3,-26 -8,-34 -4,-7 -10,-13 -17,-15 -5,-2 -13,-3 -24,-3l-29 0 0 106zm213 -122l19 0 0 80c0,14 -2,25 -5,33 -3,9 -9,15 -17,20 -9,6 -19,8 -33,8 -13,0 -23,-2 -32,-7 -8,-4 -14,-11 -17,-19 -4,-9 -6,-20 -6,-35l0 -80 19 0 0 80c0,12 1,21 3,27 2,5 6,10 12,13 5,3 12,5 20,5 13,0 23,-3 28,-10 6,-6 9,-18 9,-35l0 -80zm50 139l0 -139 100 0 0 16 -82 0 0 43 77 0 0 16 -77 0 0 47 86 0 0 17 -104 0zm128 0l0 -139 19 0 0 122 68 0 0 17 -87 0zm94 0l53 -139 21 0 56 139 -21 0 -16 -42 -58 0 -16 42 -19 0zm40 -57l47 0 -14 -39c-5,-12 -8,-21 -10,-29 -2,9 -5,18 -8,27l-15 41z"/>
  <path class="fil2 str2" d="M648 2300c77,0 140,65 140,146 0,81 -63,146 -140,146 -78,0 -141,-65 -141,-146 0,-81 63,-146 141,-146z"/>
  <path class="fil3" d="M586 2489l24 -3c2,14 7,24 14,29 6,6 14,9 24,9 11,0 21,-3 28,-11 8,-8 12,-18 12,-29 0,-11 -4,-20 -11,-27 -7,-7 -16,-11 -27,-11 -5,0 -10,1 -17,3l3 -21c1,0 2,0 3,0 11,0 20,-2 28,-8 8,-5 12,-13 12,-24 0,-9 -3,-16 -9,-22 -6,-5 -13,-8 -23,-8 -9,0 -17,3 -23,8 -6,6 -10,15 -12,27l-24 -4c3,-16 10,-29 20,-38 10,-8 23,-13 39,-13 10,0 20,2 29,7 9,4 16,11 20,18 5,8 7,17 7,25 0,9 -2,16 -6,23 -5,7 -11,13 -20,17 11,2 20,8 26,16 7,8 10,19 10,31 0,17 -6,32 -19,44 -12,11 -28,17 -46,17 -17,0 -32,-5 -43,-15 -11,-10 -18,-23 -19,-40z"/>
  <path class="fil4" d="M1159 2522l0 -159 60 0c11,0 19,0 24,1 8,1 15,4 20,8 5,3 9,8 13,15 3,6 5,14 5,22 0,13 -5,25 -13,34 -9,9 -25,14 -47,14l-41 0 0 65 -21 0zm21 -84l41 0c14,0 23,-2 29,-7 6,-5 9,-13 9,-22 0,-6 -2,-12 -5,-17 -4,-5 -8,-8 -14,-9 -3,-1 -10,-2 -19,-2l-41 0 0 57zm128 84l0 -159 70 0c14,0 25,1 32,4 8,3 14,8 18,15 5,7 7,15 7,24 0,11 -4,21 -11,29 -8,7 -19,12 -34,14 6,3 10,6 13,8 6,6 12,13 17,21l28 44 -27 0 -21 -33c-6,-10 -11,-17 -15,-22 -4,-5 -7,-9 -11,-11 -3,-2 -6,-3 -9,-4 -3,-1 -6,-1 -12,-1l-24 0 0 71 -21 0zm21 -89l45 0c10,0 17,-1 22,-3 6,-2 10,-5 13,-10 3,-4 4,-9 4,-14 0,-7 -3,-14 -8,-19 -6,-4 -14,-7 -26,-7l-50 0 0 53zm121 89l61 -159 23 0 65 159 -24 0 -18 -48 -67 0 -17 48 -23 0zm46 -66l54 0 -16 -44c-5,-13 -9,-24 -12,-33 -2,10 -5,21 -9,31l-17 46zm120 66l0 -159 55 0c12,0 22,0 28,2 9,2 17,6 23,11 9,7 15,16 19,28 4,11 6,23 6,37 0,12 -1,23 -4,32 -3,10 -6,18 -11,24 -4,6 -9,11 -14,14 -5,4 -12,6 -19,8 -8,2 -16,3 -26,3l-57 0zm21 -19l34 0c10,0 19,-1 25,-3 6,-2 10,-5 14,-8 5,-5 9,-12 11,-20 3,-9 5,-19 5,-31 0,-17 -3,-29 -9,-38 -5,-9 -12,-15 -19,-18 -6,-3 -15,-4 -28,-4l-33 0 0 122zm133 -59c0,-26 7,-47 21,-62 14,-15 33,-22 55,-22 15,0 28,4 40,11 12,7 21,16 27,29 6,12 9,27 9,42 0,17 -3,31 -10,44 -6,12 -15,22 -27,29 -12,6 -25,9 -39,9 -15,0 -28,-3 -40,-10 -12,-8 -21,-17 -27,-30 -6,-12 -9,-26 -9,-40zm22 1c0,19 5,34 15,45 10,11 23,16 39,16 16,0 29,-5 39,-16 10,-11 15,-27 15,-48 0,-12 -2,-24 -6,-33 -5,-10 -11,-18 -19,-23 -9,-5 -18,-8 -29,-8 -15,0 -27,5 -38,16 -11,10 -16,27 -16,51zm150 26l20 -2c1,8 3,14 7,20 3,5 8,9 16,12 7,3 15,5 24,5 8,0 15,-1 21,-4 6,-2 11,-6 14,-10 3,-4 5,-8 5,-13 0,-5 -2,-10 -5,-13 -3,-4 -7,-7 -14,-10 -4,-1 -14,-4 -28,-7 -15,-4 -25,-7 -31,-10 -8,-4 -13,-9 -17,-15 -4,-6 -6,-13 -6,-20 0,-8 3,-16 7,-23 5,-7 11,-12 20,-16 9,-3 19,-5 29,-5 12,0 22,2 31,6 9,3 16,9 21,16 5,8 8,16 8,26l-20 1c-1,-10 -5,-18 -11,-23 -6,-5 -16,-7 -28,-7 -13,0 -22,2 -28,7 -6,4 -8,10 -8,17 0,5 2,10 6,14 4,3 14,7 31,11 18,4 29,7 36,10 9,4 16,10 20,16 5,7 7,14 7,23 0,8 -3,16 -8,24 -4,7 -11,13 -20,17 -9,4 -20,6 -31,6 -14,0 -26,-2 -36,-6 -10,-4 -17,-10 -23,-19 -6,-8 -8,-18 -9,-28z"/>
  <path class="fil2 str2" d="M654 2835c77,0 140,66 140,146 0,81 -63,146 -140,146 -78,0 -141,-65 -141,-146 0,-80 63,-146 141,-146z"/>
  <path class="fil3" d="M669 3078l0 -46 -84 0 0 -22 88 -126 20 0 0 126 26 0 0 22 -26 0 0 46 -24 0zm0 -68l0 -87 -61 87 61 0z"/>
  <path class="fil4" d="M1142 3052l53 -139 20 0 57 139 -21 0 -16 -42 -59 0 -15 42 -19 0zm40 -57l47 0 -14 -39c-5,-12 -8,-21 -10,-29 -2,9 -5,18 -8,27l-15 41zm104 57l0 -139 18 0 0 122 69 0 0 17 -87 0zm108 0l0 -139 52 0c11,0 19,1 26,4 6,3 11,7 15,13 3,6 5,12 5,18 0,6 -1,12 -5,17 -3,5 -8,9 -14,13 8,2 15,6 19,12 5,6 7,13 7,21 0,7 -1,13 -4,19 -3,5 -6,10 -10,13 -4,3 -9,5 -16,6 -6,2 -13,3 -22,3l-53 0zm18 -81l30 0c9,0 14,0 18,-2 5,-1 8,-3 11,-7 2,-3 3,-7 3,-12 0,-4 -1,-8 -3,-12 -2,-3 -6,-6 -10,-7 -4,-1 -11,-2 -21,-2l-28 0 0 42zm0 64l35 0c6,0 10,0 13,0 4,-1 7,-2 10,-4 3,-2 5,-4 7,-8 2,-3 3,-7 3,-12 0,-5 -1,-9 -4,-13 -3,-4 -6,-7 -11,-8 -5,-2 -12,-3 -20,-3l-33 0 0 48zm113 17l0 -139 100 0 0 16 -82 0 0 43 77 0 0 16 -77 0 0 47 86 0 0 17 -104 0zm129 0l0 -139 62 0c13,0 22,1 28,3 7,3 12,7 16,14 4,6 6,13 6,21 0,9 -4,18 -10,24 -6,7 -16,12 -30,13 5,3 9,5 12,7 5,5 10,11 15,19l24 38 -23 0 -19 -29c-5,-9 -9,-15 -13,-19 -3,-5 -6,-8 -9,-10 -3,-1 -6,-3 -9,-3 -2,-1 -5,-1 -10,-1l-21 0 0 62 -19 0zm19 -78l39 0c9,0 15,-1 20,-3 5,-1 8,-4 11,-8 2,-4 4,-8 4,-12 0,-7 -3,-12 -8,-17 -4,-4 -12,-6 -22,-6l-44 0 0 46zm221 29l18 5c-4,15 -11,26 -21,34 -10,8 -22,12 -36,12 -15,0 -28,-3 -37,-9 -9,-6 -17,-15 -21,-27 -5,-11 -8,-24 -8,-37 0,-14 3,-27 8,-38 6,-11 14,-19 24,-24 10,-6 22,-9 34,-9 14,0 25,4 35,11 9,7 16,17 20,30l-18 4c-4,-10 -8,-17 -14,-22 -6,-5 -14,-7 -23,-7 -11,0 -20,3 -27,8 -7,5 -12,12 -15,20 -3,9 -5,18 -5,27 0,12 2,22 5,31 4,9 9,15 16,20 8,4 16,6 24,6 10,0 19,-3 26,-9 7,-6 12,-14 15,-26zm26 49l53 -139 20 0 57 139 -21 0 -16 -42 -59 0 -15 42 -19 0zm40 -57l47 0 -14 -39c-5,-12 -8,-21 -10,-29 -2,9 -5,18 -8,27l-15 41z"/>
 </g>
</svg>
